<svg width="42" height="42" viewBox="0 0 42 42" fill="none" xmlns="http://www.w3.org/2000/svg">
<rect width="42" height="41.9999" rx="5" fill="#110D24"/>
<path d="M24.3 25.4237C24.3 25.9463 23.8896 26.3699 23.3833 26.3699H18.6167C18.1104 26.3699 17.7 25.9463 17.7 25.4237V23.9097H10V30.1074C10 31.1525 10.8209 31.9999 11.8333 31.9999H30.1667C31.1791 31.9999 32 31.1525 32 30.1074V23.9097H24.3V25.4237Z" fill="white"/>
<path d="M30.1668 14.9677H26.1613V12.5979C26.1613 11.1655 25.0323 10 23.6447 10H18.3555C16.9679 10 15.8388 11.1653 15.8388 12.5979V14.9677H11.8333C10.8209 14.9677 10 15.815 10 16.8601V22.017H17.7V20.503C17.7 19.9804 18.1104 19.5568 18.6167 19.5568H23.3833C23.8896 19.5568 24.3 19.9804 24.3 20.503V22.017H32V16.8601C32 15.815 31.1791 14.9677 30.1667 14.9677H30.1668ZM24.328 14.9677H17.6722V12.5979C17.6722 12.2089 17.9787 11.8924 18.3555 11.8924H23.6447C24.0214 11.8924 24.3279 12.2089 24.3279 12.5979L24.328 14.9677Z" fill="white"/>
<path d="M19.5342 21.4497H22.4675V24.4776H19.5342V21.4497Z" fill="white"/>
</svg>
