<svg width="42" height="42" viewBox="0 0 42 42" fill="none" xmlns="http://www.w3.org/2000/svg">
<rect x="0.5" y="0.5" width="41" height="41" rx="4.5" fill="#110D24"/>
<path d="M31.4347 28.5044L27.8406 24.9095C27.6611 24.7296 27.4285 24.6122 27.1773 24.5744C26.9259 24.5368 26.6693 24.5808 26.4449 24.6999L25.6541 23.909C26.7778 22.4043 27.3889 20.5787 27.3977 18.7005C27.4085 16.5341 26.606 14.4425 25.149 12.8394C23.6919 11.2364 21.6864 10.2387 19.5294 10.0434C19.2535 10.0145 18.9763 10 18.699 10C16.3919 10 14.1792 10.9166 12.5479 12.5483C10.9165 14.18 10 16.3928 10 18.7005C10 21.0081 10.9165 23.2211 12.5479 24.8527C14.1793 26.4844 16.3917 27.401 18.699 27.401C18.9917 27.401 19.2762 27.401 19.5373 27.3614C21.1249 27.2112 22.64 26.624 23.9144 25.6648L24.7052 26.4557C24.587 26.6798 24.5436 26.9358 24.5812 27.1863C24.6189 27.4368 24.7358 27.6686 24.9148 27.8479L28.5091 31.4428H28.5089C29.0388 31.9366 29.7876 32.1184 30.485 31.9228C31.1823 31.727 31.7271 31.182 31.9227 30.4846C32.1185 29.7872 31.9365 29.0383 31.4428 28.5083L31.4347 28.5044ZM11.5814 18.7008C11.5813 16.5216 12.5791 14.4624 14.2894 13.1127C15.9997 11.7626 18.2339 11.2704 20.3529 11.7769C22.4718 12.2834 24.2425 13.7329 25.1574 15.7104C26.0724 17.6881 26.0315 19.976 25.0462 21.9195C24.061 23.863 22.2398 25.2482 20.1038 25.6786C17.9679 26.1089 15.7526 25.537 14.0919 24.1268C12.4994 22.7744 11.5813 20.7903 11.5811 18.7009L11.5814 18.7008Z" fill="white"/>
<path d="M19.1575 25.0286H19.2365L19.5015 25.0008C20.0302 24.935 20.5484 24.8021 21.0436 24.6054L21.2649 24.5145L21.5258 24.3879L21.7353 24.2811H21.7355C22.0594 24.0964 22.3664 23.8833 22.6529 23.6444L22.7952 23.5297C22.9978 23.3573 23.1893 23.1725 23.3685 22.976C23.061 21.3495 21.9283 20.0006 20.3794 19.4168C21.1619 18.9284 21.6923 18.1228 21.8318 17.2108C21.9711 16.2989 21.7056 15.3715 21.1047 14.6714C20.5036 13.9716 19.6273 13.5688 18.7049 13.5688C17.7825 13.5688 16.906 13.9716 16.3052 14.6714C15.7041 15.3714 15.4386 16.2989 15.5779 17.2108C15.7174 18.1228 16.2478 18.9284 17.0303 19.4168C15.4799 19.9994 14.3455 21.3484 14.0371 22.976C14.2165 23.1725 14.408 23.3573 14.6105 23.5297L14.7527 23.6444H14.7529C15.0385 23.8679 15.3427 24.0664 15.6623 24.2376L15.8719 24.3444L16.1328 24.471L16.3541 24.5619H16.3543C16.8494 24.7586 17.3677 24.8916 17.8964 24.9574L18.1613 24.9851H18.2404C18.5456 25.0114 18.8524 25.0114 19.1576 24.9851L19.1575 25.0286ZM18.3035 23.8422V21.0739C18.0851 21.0739 17.9081 20.8968 17.9081 20.6784C17.9081 20.46 18.0851 20.2829 18.3035 20.2829H19.0943C19.3126 20.2829 19.4897 20.46 19.4897 20.6784C19.4897 20.8968 19.3126 21.0739 19.0943 21.0739V23.8422C19.0943 24.0605 18.9172 24.2376 18.6989 24.2376C18.4805 24.2376 18.3035 24.0605 18.3035 23.8422Z" fill="white"/>
<rect x="0.5" y="0.5" width="41" height="41" rx="4.5" stroke="white"/>
</svg>
