<svg width="20" height="20" viewBox="0 0 20 20" fill="none" xmlns="http://www.w3.org/2000/svg">
<path d="M1.66667 10L5.83334 13.3334V10.8334H13.3333V9.16669H5.83334V6.66669L1.66667 10Z" fill="#203548"/>
<path d="M10.8342 2.49917C9.84878 2.49644 8.87263 2.68927 7.96229 3.06648C7.05195 3.44369 6.22551 3.99779 5.53084 4.69667L6.70917 5.87501C7.81084 4.77334 9.27584 4.16584 10.8342 4.16584C12.3925 4.16584 13.8575 4.77334 14.9592 5.87501C16.0608 6.97667 16.6683 8.44167 16.6683 10C16.6683 11.5583 16.0608 13.0233 14.9592 14.125C13.8575 15.2267 12.3925 15.8342 10.8342 15.8342C9.27584 15.8342 7.81084 15.2267 6.70917 14.125L5.53084 15.3033C6.94667 16.72 8.83 17.5008 10.8342 17.5008C12.8383 17.5008 14.7217 16.72 16.1375 15.3033C17.5542 13.8875 18.335 12.0042 18.335 10C18.335 7.99584 17.5542 6.11251 16.1375 4.69667C15.4428 3.99779 14.6164 3.44369 13.706 3.06648C12.7957 2.68927 11.8196 2.49644 10.8342 2.49917Z" fill="#203548"/>
</svg>
