<svg width="22" height="22" viewBox="0 0 22 22" fill="none" xmlns="http://www.w3.org/2000/svg">
<rect width="42" height="41.9999" rx="5" fill="#110D24"/>
<path d="M14.318 2.50504V1.84273C14.318 0.826685 13.4912 0 12.475 0H1.84287C0.826677 0 0 0.826685 0 1.84273V2.5052L14.318 2.50504Z" fill="white"/>
<path d="M0 4.26514V7.83705C0 8.85341 0.826678 9.67994 1.84287 9.67994H12.475C13.4912 9.67994 14.3179 8.85325 14.3179 7.83705L14.318 4.26514H0ZM2.38779 7.79592V6.03589H7.89518V7.79592H2.38779Z" fill="white"/>
<path d="M6.8907 18.8559L3.74683 15.712V17.9759H3.6589C2.61187 17.9759 1.76017 17.1244 1.76017 16.0773L1.76001 11.7241H0V16.0773C0 18.0947 1.64122 19.736 3.65874 19.736H3.74668L3.74683 22L6.8907 18.8559Z" fill="white"/>
<path d="M21.9995 14.8254V14.1629C21.9995 13.1468 21.1728 12.3203 20.1566 12.3203H9.52451C8.50832 12.3203 7.68164 13.147 7.68164 14.163V14.8255L21.9995 14.8254Z" fill="white"/>
<path d="M7.68164 16.585V20.1569C7.68164 21.1731 8.50832 21.9998 9.52451 21.9998H20.1566C21.1728 21.9998 21.9995 21.1731 21.9995 20.1569L21.9997 16.585H7.68164ZM10.0693 20.1154V18.3554H14.0367V20.1154H10.0693Z" fill="white"/>
<path d="M15.1094 3.1441L18.2534 6.28816L18.2533 4.02401H18.3412C19.3882 4.02401 20.2399 4.87557 20.2399 5.9226V10.2758H21.9999L22.0001 5.9226C22.0001 3.90522 20.3589 2.26398 18.3413 2.26398H18.2534L18.2533 0L15.1094 3.1441Z" fill="white"/>
</svg>
