<svg width="14" height="14" viewBox="0 0 14 14" fill="none" xmlns="http://www.w3.org/2000/svg">
<path d="M6.99992 5.83329C9.31925 5.83329 11.6666 5.03179 11.6666 3.49996C11.6666 1.96813 9.31925 1.16663 6.99992 1.16663C4.68058 1.16663 2.33325 1.96813 2.33325 3.49996C2.33325 5.03179 4.68058 5.83329 6.99992 5.83329Z" fill="#E6E6E6"/>
<path d="M2.33325 5.83329C2.33325 7.36513 4.68058 8.16663 6.99992 8.16663C9.31925 8.16663 11.6666 7.36513 11.6666 5.83329V4.66663C11.6666 6.19846 9.31925 6.99996 6.99992 6.99996C4.68058 6.99996 2.33325 6.19846 2.33325 4.66663V5.83329Z" fill="#E6E6E6"/>
<path d="M2.33325 8.16667C2.33325 9.6985 4.68058 10.5 6.99992 10.5C9.31925 10.5 11.6666 9.6985 11.6666 8.16667V7C11.6666 8.53183 9.31925 9.33333 6.99992 9.33333C4.68058 9.33333 2.33325 8.53183 2.33325 7V8.16667Z" fill="#E6E6E6"/>
<path d="M2.33325 10.5C2.33325 12.0319 4.68058 12.8334 6.99992 12.8334C9.31925 12.8334 11.6666 12.0319 11.6666 10.5V9.33337C11.6666 10.8652 9.31925 11.6667 6.99992 11.6667C4.68058 11.6667 2.33325 10.8652 2.33325 9.33337V10.5Z" fill="#E6E6E6"/>
</svg>
