<svg width="18" height="14" viewBox="0 0 18 14" fill="none" xmlns="http://www.w3.org/2000/svg">
<path d="M15.4656 3.48904C15.477 3.64253 15.477 3.79514 15.477 3.94775C15.477 8.61822 11.9222 14 5.42563 14C3.42413 14 1.56472 13.4202 0 12.4134C0.284175 12.4458 0.557825 12.4572 0.853402 12.4572C2.44355 12.4611 3.98866 11.9293 5.23969 10.9477C4.50244 10.9344 3.78775 10.6912 3.19542 10.252C2.60309 9.81282 2.1627 9.19963 1.93572 8.49806C2.15412 8.53051 2.37339 8.55244 2.60318 8.55244C2.91981 8.55244 3.23819 8.50858 3.53377 8.43228C2.73366 8.27073 2.0142 7.83704 1.49772 7.20496C0.981249 6.57288 0.699643 5.78142 0.700789 4.96517V4.92131C1.17178 5.18356 1.71821 5.34757 2.29708 5.3695C1.81213 5.04725 1.41449 4.60997 1.13963 4.09667C0.864768 3.58337 0.721237 3.01002 0.721839 2.42777C0.721839 1.77171 0.896379 1.17003 1.20248 0.645534C2.09021 1.73752 3.19741 2.63086 4.45237 3.26771C5.70733 3.90456 7.08206 4.27071 8.48753 4.34244C8.43315 4.07931 8.39982 3.80654 8.39982 3.53289C8.39959 3.06888 8.49082 2.60937 8.66828 2.18064C8.84574 1.7519 9.10596 1.36235 9.43407 1.03425C9.76217 0.706141 10.1517 0.445919 10.5805 0.268456C11.0092 0.0909935 11.4687 -0.000230128 11.9327 4.35966e-07C12.9501 4.35966e-07 13.8684 0.426263 14.514 1.11565C15.3049 0.962702 16.0634 0.67397 16.7558 0.262248C16.4922 1.07865 15.9399 1.77092 15.2025 2.20937C15.904 2.12936 16.5895 1.94489 17.2364 1.66207C16.7533 2.36646 16.1546 2.98414 15.4656 3.48904Z" fill="#E6E6E6"/>
</svg>
