<svg width="1021" height="1024" viewBox="0 0 1021 1024" fill="none" xmlns="http://www.w3.org/2000/svg">
<circle cx="687.86" cy="1256.2" r="500" transform="rotate(31.6014 687.86 1256.2)" fill="url(#paint0_linear_153_685)"/>
<circle cx="687.861" cy="1256.2" r="450" transform="rotate(31.6014 687.861 1256.2)" fill="url(#paint1_linear_153_685)"/>
<circle cx="687.86" cy="1256.2" r="400" transform="rotate(31.6014 687.86 1256.2)" fill="url(#paint2_linear_153_685)"/>
<circle cx="687.861" cy="1256.2" r="350" transform="rotate(31.6014 687.861 1256.2)" fill="url(#paint3_linear_153_685)"/>
<circle cx="687.86" cy="1256.2" r="300" transform="rotate(31.6014 687.86 1256.2)" fill="url(#paint4_linear_153_685)"/>
<circle cx="687.86" cy="1256.2" r="250" transform="rotate(31.6014 687.86 1256.2)" fill="url(#paint5_linear_153_685)"/>
<circle cx="687.861" cy="1256.2" r="200" transform="rotate(31.6014 687.861 1256.2)" fill="url(#paint6_linear_153_685)"/>
<circle cx="962.54" cy="80.8815" r="500" transform="rotate(-159.803 962.54 80.8815)" fill="url(#paint7_linear_153_685)"/>
<circle cx="962.54" cy="80.8817" r="450" transform="rotate(-159.803 962.54 80.8817)" fill="url(#paint8_linear_153_685)"/>
<circle cx="962.541" cy="80.8814" r="400" transform="rotate(-159.803 962.541 80.8814)" fill="url(#paint9_linear_153_685)"/>
<circle cx="962.54" cy="80.8816" r="350" transform="rotate(-159.803 962.54 80.8816)" fill="url(#paint10_linear_153_685)"/>
<circle cx="962.54" cy="80.8817" r="300" transform="rotate(-159.803 962.54 80.8817)" fill="url(#paint11_linear_153_685)"/>
<circle cx="962.541" cy="80.8814" r="250" transform="rotate(-159.803 962.541 80.8814)" fill="url(#paint12_linear_153_685)"/>
<circle cx="962.54" cy="80.8816" r="200" transform="rotate(-159.803 962.54 80.8816)" fill="url(#paint13_linear_153_685)"/>
<circle cx="962.54" cy="80.8813" r="150" transform="rotate(-159.803 962.54 80.8813)" fill="url(#paint14_linear_153_685)"/>
<defs>
<linearGradient id="paint0_linear_153_685" x1="687.86" y1="756.201" x2="687.86" y2="1756.2" gradientUnits="userSpaceOnUse">
<stop offset="0.0160007" stop-color="#231E36" stop-opacity="0.08"/>
<stop offset="1" stop-color="#FFA624" stop-opacity="0"/>
</linearGradient>
<linearGradient id="paint1_linear_153_685" x1="687.861" y1="806.201" x2="687.861" y2="1706.2" gradientUnits="userSpaceOnUse">
<stop offset="0.0160007" stop-color="#231E36" stop-opacity="0.08"/>
<stop offset="1" stop-color="#FFA624" stop-opacity="0"/>
</linearGradient>
<linearGradient id="paint2_linear_153_685" x1="687.86" y1="856.201" x2="687.86" y2="1656.2" gradientUnits="userSpaceOnUse">
<stop offset="0.0160007" stop-color="#231E36" stop-opacity="0.08"/>
<stop offset="1" stop-color="#FFA624" stop-opacity="0"/>
</linearGradient>
<linearGradient id="paint3_linear_153_685" x1="687.861" y1="906.201" x2="687.861" y2="1606.2" gradientUnits="userSpaceOnUse">
<stop offset="0.0160007" stop-color="#231E36" stop-opacity="0.08"/>
<stop offset="1" stop-color="#FFA624" stop-opacity="0"/>
</linearGradient>
<linearGradient id="paint4_linear_153_685" x1="687.86" y1="956.201" x2="687.86" y2="1556.2" gradientUnits="userSpaceOnUse">
<stop offset="0.0160007" stop-color="#231E36" stop-opacity="0.08"/>
<stop offset="1" stop-color="#FFA624" stop-opacity="0"/>
</linearGradient>
<linearGradient id="paint5_linear_153_685" x1="687.86" y1="1006.2" x2="687.86" y2="1506.2" gradientUnits="userSpaceOnUse">
<stop offset="0.0160007" stop-color="#231E36" stop-opacity="0.08"/>
<stop offset="1" stop-color="#FFA624" stop-opacity="0"/>
</linearGradient>
<linearGradient id="paint6_linear_153_685" x1="687.861" y1="1056.2" x2="687.861" y2="1456.2" gradientUnits="userSpaceOnUse">
<stop offset="0.0160007" stop-color="#231E36" stop-opacity="0.08"/>
<stop offset="1" stop-color="#FFA624" stop-opacity="0"/>
</linearGradient>
<linearGradient id="paint7_linear_153_685" x1="962.54" y1="-419.119" x2="962.54" y2="580.882" gradientUnits="userSpaceOnUse">
<stop offset="0.0100007" stop-color="#0D0A17" stop-opacity="0.04"/>
<stop offset="1" stop-color="#FFA624" stop-opacity="0.13"/>
</linearGradient>
<linearGradient id="paint8_linear_153_685" x1="962.54" y1="-369.118" x2="962.54" y2="530.882" gradientUnits="userSpaceOnUse">
<stop offset="0.0100007" stop-color="#0D0A17" stop-opacity="0.04"/>
<stop offset="1" stop-color="#FFA624" stop-opacity="0.13"/>
</linearGradient>
<linearGradient id="paint9_linear_153_685" x1="962.541" y1="-319.119" x2="962.541" y2="480.881" gradientUnits="userSpaceOnUse">
<stop offset="0.0100007" stop-color="#0D0A17" stop-opacity="0.04"/>
<stop offset="1" stop-color="#FFA624" stop-opacity="0.13"/>
</linearGradient>
<linearGradient id="paint10_linear_153_685" x1="962.54" y1="-269.118" x2="962.54" y2="430.882" gradientUnits="userSpaceOnUse">
<stop offset="0.0100007" stop-color="#0D0A17" stop-opacity="0.04"/>
<stop offset="1" stop-color="#FFA624" stop-opacity="0.13"/>
</linearGradient>
<linearGradient id="paint11_linear_153_685" x1="962.54" y1="-219.118" x2="962.54" y2="380.882" gradientUnits="userSpaceOnUse">
<stop offset="0.0100007" stop-color="#0D0A17" stop-opacity="0.04"/>
<stop offset="1" stop-color="#FFA624" stop-opacity="0.13"/>
</linearGradient>
<linearGradient id="paint12_linear_153_685" x1="962.541" y1="-169.119" x2="962.541" y2="330.881" gradientUnits="userSpaceOnUse">
<stop offset="0.0100007" stop-color="#0D0A17" stop-opacity="0.04"/>
<stop offset="1" stop-color="#FFA624" stop-opacity="0.13"/>
</linearGradient>
<linearGradient id="paint13_linear_153_685" x1="962.54" y1="-119.118" x2="962.54" y2="280.882" gradientUnits="userSpaceOnUse">
<stop offset="0.0100007" stop-color="#0D0A17" stop-opacity="0.04"/>
<stop offset="1" stop-color="#FFA624" stop-opacity="0.13"/>
</linearGradient>
<linearGradient id="paint14_linear_153_685" x1="962.54" y1="-69.1187" x2="962.54" y2="230.881" gradientUnits="userSpaceOnUse">
<stop offset="0.0100007" stop-color="#0D0A17" stop-opacity="0.04"/>
<stop offset="1" stop-color="#FFA624" stop-opacity="0.13"/>
</linearGradient>
</defs>
</svg>
