<svg width="500" height="449" viewBox="0 0 500 449" fill="none" xmlns="http://www.w3.org/2000/svg">
<path opacity="0.3" d="M384.43 68.9199C384.43 68.9199 384.43 42.5299 354.02 41.9199C328.14 41.4399 327.02 62.0099 324.19 71.7599C321.36 81.5099 316.73 71.7599 305.83 74.0499C294.93 76.3399 294.93 87.2499 293.2 94.1399C291.47 101.03 284 92.9999 276 95.3099C268 97.6199 263.95 106.21 262.23 109.66C260.51 113.11 248.67 107.89 241.7 110.43C234.73 112.97 227.22 124 227.22 124H430.9C430.9 124 438.9 105.07 425.17 92.4399C411.44 79.8099 402.22 87.8499 393.61 83.8399C385 79.8299 384.43 68.9199 384.43 68.9199Z" stroke="black" stroke-miterlimit="10"/>
<path opacity="0.3" d="M108.2 169.32C108.2 169.32 108.2 153.2 89.6402 152.85C73.8402 152.56 73.1802 165.11 71.4202 171.07C69.6602 177.03 66.8702 171.07 60.2102 172.47C53.5502 173.87 53.5602 180.53 52.5102 184.73C51.4602 188.93 46.9002 184.03 42.0002 185.43C37.1002 186.83 34.6402 192.09 33.5902 194.19C32.5402 196.29 25.3102 193.11 21.0602 194.66C16.8102 196.21 12.2202 203 12.2202 203H136.58C136.58 203 141.48 191.44 133.08 183.73C124.68 176.02 119.08 180.93 113.81 178.48C108.54 176.03 108.2 169.32 108.2 169.32Z" stroke="black" stroke-miterlimit="10"/>
<g opacity="0.3">
<path opacity="0.3" d="M94.3599 298.09H84.3599V306.92H94.3599V298.09Z" stroke="black" stroke-miterlimit="10"/>
<path opacity="0.3" d="M77.6 303.44H73.54V306.92H77.6V303.44Z" stroke="black" stroke-miterlimit="10"/>
<path opacity="0.3" d="M484.51 353.84H446.6V283.78H449.13V276.53H360.29V283.78H363.37V387.97H340.07V164.44H260.17V333.49H230.95V314.77H238.6V306.86H174.72V193.46H178.85V187.52H101.31V193.46H106.87V307.05H45.5799V388.3H13.3999" stroke="black" stroke-miterlimit="10"/>
<path opacity="0.3" d="M343.25 162H256.61V164.43H343.25V162Z" stroke="black" stroke-miterlimit="10"/>
<path opacity="0.3" d="M123.57 200.05H113.81V209.2H123.57V200.05Z" stroke="black" stroke-miterlimit="10"/>
<path opacity="0.3" d="M137.88 200.05H128.12V209.2H137.88V200.05Z" stroke="black" stroke-miterlimit="10"/>
<path opacity="0.3" d="M152.19 200.05H142.43V209.2H152.19V200.05Z" stroke="black" stroke-miterlimit="10"/>
<path opacity="0.3" d="M166.51 200.05H156.75V209.2H166.51V200.05Z" stroke="black" stroke-miterlimit="10"/>
<path opacity="0.3" d="M123.57 214.55H113.81V223.7H123.57V214.55Z" stroke="black" stroke-miterlimit="10"/>
<path opacity="0.3" d="M137.88 214.55H128.12V223.7H137.88V214.55Z" stroke="black" stroke-miterlimit="10"/>
<path opacity="0.3" d="M152.19 214.55H142.43V223.7H152.19V214.55Z" stroke="black" stroke-miterlimit="10"/>
<path opacity="0.3" d="M166.51 214.55H156.75V223.7H166.51V214.55Z" stroke="black" stroke-miterlimit="10"/>
<path opacity="0.3" d="M123.57 229.06H113.81V238.21H123.57V229.06Z" stroke="black" stroke-miterlimit="10"/>
<path opacity="0.3" d="M137.88 229.06H128.12V238.21H137.88V229.06Z" stroke="black" stroke-miterlimit="10"/>
<path opacity="0.3" d="M152.19 229.06H142.43V238.21H152.19V229.06Z" stroke="black" stroke-miterlimit="10"/>
<path opacity="0.3" d="M166.51 229.06H156.75V238.21H166.51V229.06Z" stroke="black" stroke-miterlimit="10"/>
<path opacity="0.3" d="M123.57 243.56H113.81V252.71H123.57V243.56Z" stroke="black" stroke-miterlimit="10"/>
<path opacity="0.3" d="M137.88 243.56H128.12V252.71H137.88V243.56Z" stroke="black" stroke-miterlimit="10"/>
<path opacity="0.3" d="M152.19 243.56H142.43V252.71H152.19V243.56Z" stroke="black" stroke-miterlimit="10"/>
<path opacity="0.3" d="M166.51 243.56H156.75V252.71H166.51V243.56Z" stroke="black" stroke-miterlimit="10"/>
<path opacity="0.3" d="M123.57 258.07H113.81V267.22H123.57V258.07Z" stroke="black" stroke-miterlimit="10"/>
<path opacity="0.3" d="M137.88 258.07H128.12V267.22H137.88V258.07Z" stroke="black" stroke-miterlimit="10"/>
<path opacity="0.3" d="M152.19 258.07H142.43V267.22H152.19V258.07Z" stroke="black" stroke-miterlimit="10"/>
<path opacity="0.3" d="M166.51 258.07H156.75V267.22H166.51V258.07Z" stroke="black" stroke-miterlimit="10"/>
<path opacity="0.3" d="M123.57 272.58H113.81V281.73H123.57V272.58Z" stroke="black" stroke-miterlimit="10"/>
<path opacity="0.3" d="M137.88 272.58H128.12V281.73H137.88V272.58Z" stroke="black" stroke-miterlimit="10"/>
<path opacity="0.3" d="M152.19 272.58H142.43V281.73H152.19V272.58Z" stroke="black" stroke-miterlimit="10"/>
<path opacity="0.3" d="M166.51 272.58H156.75V281.73H166.51V272.58Z" stroke="black" stroke-miterlimit="10"/>
<path opacity="0.3" d="M123.57 287.08H113.81V296.23H123.57V287.08Z" stroke="black" stroke-miterlimit="10"/>
<path opacity="0.3" d="M137.88 287.08H128.12V296.23H137.88V287.08Z" stroke="black" stroke-miterlimit="10"/>
<path opacity="0.3" d="M152.19 287.08H142.43V296.23H152.19V287.08Z" stroke="black" stroke-miterlimit="10"/>
<path opacity="0.3" d="M166.51 287.08H156.75V296.23H166.51V287.08Z" stroke="black" stroke-miterlimit="10"/>
<path opacity="0.3" d="M123.57 301.59H113.81V310.74H123.57V301.59Z" stroke="black" stroke-miterlimit="10"/>
<path opacity="0.3" d="M137.88 301.59H128.12V310.74H137.88V301.59Z" stroke="black" stroke-miterlimit="10"/>
<path opacity="0.3" d="M152.19 301.59H142.43V310.74H152.19V301.59Z" stroke="black" stroke-miterlimit="10"/>
<path opacity="0.3" d="M166.51 301.59H156.75V310.74H166.51V301.59Z" stroke="black" stroke-miterlimit="10"/>
<path opacity="0.3" d="M123.57 314.85H113.81V324H123.57V314.85Z" stroke="black" stroke-miterlimit="10"/>
<path opacity="0.3" d="M137.88 314.85H128.12V324H137.88V314.85Z" stroke="black" stroke-miterlimit="10"/>
<path opacity="0.3" d="M152.19 314.85H142.43V324H152.19V314.85Z" stroke="black" stroke-miterlimit="10"/>
<path opacity="0.3" d="M166.51 314.85H156.75V324H166.51V314.85Z" stroke="black" stroke-miterlimit="10"/>
<path opacity="0.3" d="M123.57 329.36H113.81V338.51H123.57V329.36Z" stroke="black" stroke-miterlimit="10"/>
<path opacity="0.3" d="M137.88 329.36H128.12V338.51H137.88V329.36Z" stroke="black" stroke-miterlimit="10"/>
<path opacity="0.3" d="M152.19 329.36H142.43V338.51H152.19V329.36Z" stroke="black" stroke-miterlimit="10"/>
<path opacity="0.3" d="M166.51 329.36H156.75V338.51H166.51V329.36Z" stroke="black" stroke-miterlimit="10"/>
<path opacity="0.3" d="M123.57 343.86H113.81V353.01H123.57V343.86Z" stroke="black" stroke-miterlimit="10"/>
<path opacity="0.3" d="M137.88 343.86H128.12V353.01H137.88V343.86Z" stroke="black" stroke-miterlimit="10"/>
<path opacity="0.3" d="M152.19 343.86H142.43V353.01H152.19V343.86Z" stroke="black" stroke-miterlimit="10"/>
<path opacity="0.3" d="M166.51 343.86H156.75V353.01H166.51V343.86Z" stroke="black" stroke-miterlimit="10"/>
<path opacity="0.3" d="M123.57 358.37H113.81V367.52H123.57V358.37Z" stroke="black" stroke-miterlimit="10"/>
<path opacity="0.3" d="M137.88 358.37H128.12V367.52H137.88V358.37Z" stroke="black" stroke-miterlimit="10"/>
<path opacity="0.3" d="M152.19 358.37H142.43V367.52H152.19V358.37Z" stroke="black" stroke-miterlimit="10"/>
<path opacity="0.3" d="M166.51 358.37H156.75V367.52H166.51V358.37Z" stroke="black" stroke-miterlimit="10"/>
<path opacity="0.3" d="M123.57 372.88H113.81V382.03H123.57V372.88Z" stroke="black" stroke-miterlimit="10"/>
<path opacity="0.3" d="M137.88 372.88H128.12V382.03H137.88V372.88Z" stroke="black" stroke-miterlimit="10"/>
<path opacity="0.3" d="M152.19 372.88H142.43V382.03H152.19V372.88Z" stroke="black" stroke-miterlimit="10"/>
<path opacity="0.3" d="M166.51 372.88H156.75V382.03H166.51V372.88Z" stroke="black" stroke-miterlimit="10"/>
<path opacity="0.3" d="M123.57 387.38H113.81V396.53H123.57V387.38Z" stroke="black" stroke-miterlimit="10"/>
<path opacity="0.3" d="M137.88 387.38H128.12V396.53H137.88V387.38Z" stroke="black" stroke-miterlimit="10"/>
<path opacity="0.3" d="M152.19 387.38H142.43V396.53H152.19V387.38Z" stroke="black" stroke-miterlimit="10"/>
<path opacity="0.3" d="M166.51 387.38H156.75V396.53H166.51V387.38Z" stroke="black" stroke-miterlimit="10"/>
<path opacity="0.3" d="M123.57 401.89H113.81V411.04H123.57V401.89Z" stroke="black" stroke-miterlimit="10"/>
<path opacity="0.3" d="M137.88 401.89H128.12V411.04H137.88V401.89Z" stroke="black" stroke-miterlimit="10"/>
<path opacity="0.3" d="M152.19 401.89H142.43V411.04H152.19V401.89Z" stroke="black" stroke-miterlimit="10"/>
<path opacity="0.3" d="M166.51 401.89H156.75V411.04H166.51V401.89Z" stroke="black" stroke-miterlimit="10"/>
<path opacity="0.3" d="M123.57 416.39H113.81V425.54H123.57V416.39Z" stroke="black" stroke-miterlimit="10"/>
<path opacity="0.3" d="M137.88 416.39H128.12V425.54H137.88V416.39Z" stroke="black" stroke-miterlimit="10"/>
<path opacity="0.3" d="M152.19 416.39H142.43V425.54H152.19V416.39Z" stroke="black" stroke-miterlimit="10"/>
<path opacity="0.3" d="M166.51 416.39H156.75V425.54H166.51V416.39Z" stroke="black" stroke-miterlimit="10"/>
<path opacity="0.3" d="M179.47 314.85H169.71V324H179.47V314.85Z" stroke="black" stroke-miterlimit="10"/>
<path opacity="0.3" d="M193.79 314.85H184.03V324H193.79V314.85Z" stroke="black" stroke-miterlimit="10"/>
<path opacity="0.3" d="M208.1 314.85H198.34V324H208.1V314.85Z" stroke="black" stroke-miterlimit="10"/>
<path opacity="0.3" d="M222.41 314.85H212.65V324H222.41V314.85Z" stroke="black" stroke-miterlimit="10"/>
<path opacity="0.3" d="M179.47 329.36H169.71V338.51H179.47V329.36Z" stroke="black" stroke-miterlimit="10"/>
<path opacity="0.3" d="M193.79 329.36H184.03V338.51H193.79V329.36Z" stroke="black" stroke-miterlimit="10"/>
<path opacity="0.3" d="M208.1 329.36H198.34V338.51H208.1V329.36Z" stroke="black" stroke-miterlimit="10"/>
<path opacity="0.3" d="M222.41 329.36H212.65V338.51H222.41V329.36Z" stroke="black" stroke-miterlimit="10"/>
<path opacity="0.3" d="M179.47 343.86H169.71V353.01H179.47V343.86Z" stroke="black" stroke-miterlimit="10"/>
<path opacity="0.3" d="M193.79 343.86H184.03V353.01H193.79V343.86Z" stroke="black" stroke-miterlimit="10"/>
<path opacity="0.3" d="M208.1 343.86H198.34V353.01H208.1V343.86Z" stroke="black" stroke-miterlimit="10"/>
<path opacity="0.3" d="M222.41 343.86H212.65V353.01H222.41V343.86Z" stroke="black" stroke-miterlimit="10"/>
<path opacity="0.3" d="M179.47 358.37H169.71V367.52H179.47V358.37Z" stroke="black" stroke-miterlimit="10"/>
<path opacity="0.3" d="M193.79 358.37H184.03V367.52H193.79V358.37Z" stroke="black" stroke-miterlimit="10"/>
<path opacity="0.3" d="M208.1 358.37H198.34V367.52H208.1V358.37Z" stroke="black" stroke-miterlimit="10"/>
<path opacity="0.3" d="M222.41 358.37H212.65V367.52H222.41V358.37Z" stroke="black" stroke-miterlimit="10"/>
<path opacity="0.3" d="M179.47 372.88H169.71V382.03H179.47V372.88Z" stroke="black" stroke-miterlimit="10"/>
<path opacity="0.3" d="M193.79 372.88H184.03V382.03H193.79V372.88Z" stroke="black" stroke-miterlimit="10"/>
<path opacity="0.3" d="M208.1 372.88H198.34V382.03H208.1V372.88Z" stroke="black" stroke-miterlimit="10"/>
<path opacity="0.3" d="M222.41 372.88H212.65V382.03H222.41V372.88Z" stroke="black" stroke-miterlimit="10"/>
<path opacity="0.3" d="M179.47 387.38H169.71V396.53H179.47V387.38Z" stroke="black" stroke-miterlimit="10"/>
<path opacity="0.3" d="M193.79 387.38H184.03V396.53H193.79V387.38Z" stroke="black" stroke-miterlimit="10"/>
<path opacity="0.3" d="M208.1 387.38H198.34V396.53H208.1V387.38Z" stroke="black" stroke-miterlimit="10"/>
<path opacity="0.3" d="M222.41 387.38H212.65V396.53H222.41V387.38Z" stroke="black" stroke-miterlimit="10"/>
<path opacity="0.3" d="M179.47 401.89H169.71V411.04H179.47V401.89Z" stroke="black" stroke-miterlimit="10"/>
<path opacity="0.3" d="M193.79 401.89H184.03V411.04H193.79V401.89Z" stroke="black" stroke-miterlimit="10"/>
<path opacity="0.3" d="M208.1 401.89H198.34V411.04H208.1V401.89Z" stroke="black" stroke-miterlimit="10"/>
<path opacity="0.3" d="M222.41 401.89H212.65V411.04H222.41V401.89Z" stroke="black" stroke-miterlimit="10"/>
<path opacity="0.3" d="M179.47 416.39H169.71V425.54H179.47V416.39Z" stroke="black" stroke-miterlimit="10"/>
<path opacity="0.3" d="M193.79 416.39H184.03V425.54H193.79V416.39Z" stroke="black" stroke-miterlimit="10"/>
<path opacity="0.3" d="M208.1 416.39H198.34V425.54H208.1V416.39Z" stroke="black" stroke-miterlimit="10"/>
<path opacity="0.3" d="M222.41 416.39H212.65V425.54H222.41V416.39Z" stroke="black" stroke-miterlimit="10"/>
<path opacity="0.3" d="M66.8699 314.85H57.1099V324H66.8699V314.85Z" stroke="black" stroke-miterlimit="10"/>
<path opacity="0.3" d="M81.1897 314.85H71.4297V324H81.1897V314.85Z" stroke="black" stroke-miterlimit="10"/>
<path opacity="0.3" d="M95.4997 314.85H85.7397V324H95.4997V314.85Z" stroke="black" stroke-miterlimit="10"/>
<path opacity="0.3" d="M109.81 314.85H100.05V324H109.81V314.85Z" stroke="black" stroke-miterlimit="10"/>
<path opacity="0.3" d="M66.8699 329.36H57.1099V338.51H66.8699V329.36Z" stroke="black" stroke-miterlimit="10"/>
<path opacity="0.3" d="M81.1897 329.36H71.4297V338.51H81.1897V329.36Z" stroke="black" stroke-miterlimit="10"/>
<path opacity="0.3" d="M95.4997 329.36H85.7397V338.51H95.4997V329.36Z" stroke="black" stroke-miterlimit="10"/>
<path opacity="0.3" d="M109.81 329.36H100.05V338.51H109.81V329.36Z" stroke="black" stroke-miterlimit="10"/>
<path opacity="0.3" d="M66.8699 343.86H57.1099V353.01H66.8699V343.86Z" stroke="black" stroke-miterlimit="10"/>
<path opacity="0.3" d="M81.1897 343.86H71.4297V353.01H81.1897V343.86Z" stroke="black" stroke-miterlimit="10"/>
<path opacity="0.3" d="M95.4997 343.86H85.7397V353.01H95.4997V343.86Z" stroke="black" stroke-miterlimit="10"/>
<path opacity="0.3" d="M109.81 343.86H100.05V353.01H109.81V343.86Z" stroke="black" stroke-miterlimit="10"/>
<path opacity="0.3" d="M66.8699 358.37H57.1099V367.52H66.8699V358.37Z" stroke="black" stroke-miterlimit="10"/>
<path opacity="0.3" d="M81.1897 358.37H71.4297V367.52H81.1897V358.37Z" stroke="black" stroke-miterlimit="10"/>
<path opacity="0.3" d="M95.4997 358.37H85.7397V367.52H95.4997V358.37Z" stroke="black" stroke-miterlimit="10"/>
<path opacity="0.3" d="M109.81 358.37H100.05V367.52H109.81V358.37Z" stroke="black" stroke-miterlimit="10"/>
<path opacity="0.3" d="M66.8699 372.88H57.1099V382.03H66.8699V372.88Z" stroke="black" stroke-miterlimit="10"/>
<path opacity="0.3" d="M81.1897 372.88H71.4297V382.03H81.1897V372.88Z" stroke="black" stroke-miterlimit="10"/>
<path opacity="0.3" d="M95.4997 372.88H85.7397V382.03H95.4997V372.88Z" stroke="black" stroke-miterlimit="10"/>
<path opacity="0.3" d="M109.81 372.88H100.05V382.03H109.81V372.88Z" stroke="black" stroke-miterlimit="10"/>
<path opacity="0.3" d="M66.8699 387.38H57.1099V396.53H66.8699V387.38Z" stroke="black" stroke-miterlimit="10"/>
<path opacity="0.3" d="M81.1897 387.38H71.4297V396.53H81.1897V387.38Z" stroke="black" stroke-miterlimit="10"/>
<path opacity="0.3" d="M95.4997 387.38H85.7397V396.53H95.4997V387.38Z" stroke="black" stroke-miterlimit="10"/>
<path opacity="0.3" d="M109.81 387.38H100.05V396.53H109.81V387.38Z" stroke="black" stroke-miterlimit="10"/>
<path opacity="0.3" d="M66.8699 401.89H57.1099V411.04H66.8699V401.89Z" stroke="black" stroke-miterlimit="10"/>
<path opacity="0.3" d="M81.1897 401.89H71.4297V411.04H81.1897V401.89Z" stroke="black" stroke-miterlimit="10"/>
<path opacity="0.3" d="M95.4997 401.89H85.7397V411.04H95.4997V401.89Z" stroke="black" stroke-miterlimit="10"/>
<path opacity="0.3" d="M109.81 401.89H100.05V411.04H109.81V401.89Z" stroke="black" stroke-miterlimit="10"/>
<path opacity="0.3" d="M66.8699 416.39H57.1099V425.54H66.8699V416.39Z" stroke="black" stroke-miterlimit="10"/>
<path opacity="0.3" d="M81.1897 416.39H71.4297V425.54H81.1897V416.39Z" stroke="black" stroke-miterlimit="10"/>
<path opacity="0.3" d="M95.4997 416.39H85.7397V425.54H95.4997V416.39Z" stroke="black" stroke-miterlimit="10"/>
<path opacity="0.3" d="M109.81 416.39H100.05V425.54H109.81V416.39Z" stroke="black" stroke-miterlimit="10"/>
<path opacity="0.3" d="M386.62 286.42H376.86V295.57H386.62V286.42Z" stroke="black" stroke-miterlimit="10"/>
<path opacity="0.3" d="M400.93 286.42H391.17V295.57H400.93V286.42Z" stroke="black" stroke-miterlimit="10"/>
<path opacity="0.3" d="M415.24 286.42H405.48V295.57H415.24V286.42Z" stroke="black" stroke-miterlimit="10"/>
<path opacity="0.3" d="M429.56 286.42H419.8V295.57H429.56V286.42Z" stroke="black" stroke-miterlimit="10"/>
<path opacity="0.3" d="M386.62 300.93H376.86V310.08H386.62V300.93Z" stroke="black" stroke-miterlimit="10"/>
<path opacity="0.3" d="M400.93 300.93H391.17V310.08H400.93V300.93Z" stroke="black" stroke-miterlimit="10"/>
<path opacity="0.3" d="M415.24 300.93H405.48V310.08H415.24V300.93Z" stroke="black" stroke-miterlimit="10"/>
<path opacity="0.3" d="M429.56 300.93H419.8V310.08H429.56V300.93Z" stroke="black" stroke-miterlimit="10"/>
<path opacity="0.3" d="M386.62 315.43H376.86V324.58H386.62V315.43Z" stroke="black" stroke-miterlimit="10"/>
<path opacity="0.3" d="M400.93 315.43H391.17V324.58H400.93V315.43Z" stroke="black" stroke-miterlimit="10"/>
<path opacity="0.3" d="M415.24 315.43H405.48V324.58H415.24V315.43Z" stroke="black" stroke-miterlimit="10"/>
<path opacity="0.3" d="M429.56 315.43H419.8V324.58H429.56V315.43Z" stroke="black" stroke-miterlimit="10"/>
<path opacity="0.3" d="M386.62 329.94H376.86V339.09H386.62V329.94Z" stroke="black" stroke-miterlimit="10"/>
<path opacity="0.3" d="M400.93 329.94H391.17V339.09H400.93V329.94Z" stroke="black" stroke-miterlimit="10"/>
<path opacity="0.3" d="M415.24 329.94H405.48V339.09H415.24V329.94Z" stroke="black" stroke-miterlimit="10"/>
<path opacity="0.3" d="M429.56 329.94H419.8V339.09H429.56V329.94Z" stroke="black" stroke-miterlimit="10"/>
<path opacity="0.3" d="M386.62 344.44H376.86V353.59H386.62V344.44Z" stroke="black" stroke-miterlimit="10"/>
<path opacity="0.3" d="M400.93 344.44H391.17V353.59H400.93V344.44Z" stroke="black" stroke-miterlimit="10"/>
<path opacity="0.3" d="M415.24 344.44H405.48V353.59H415.24V344.44Z" stroke="black" stroke-miterlimit="10"/>
<path opacity="0.3" d="M429.56 344.44H419.8V353.59H429.56V344.44Z" stroke="black" stroke-miterlimit="10"/>
<path opacity="0.3" d="M386.62 358.95H376.86V368.1H386.62V358.95Z" stroke="black" stroke-miterlimit="10"/>
<path opacity="0.3" d="M400.93 358.95H391.17V368.1H400.93V358.95Z" stroke="black" stroke-miterlimit="10"/>
<path opacity="0.3" d="M415.24 358.95H405.48V368.1H415.24V358.95Z" stroke="black" stroke-miterlimit="10"/>
<path opacity="0.3" d="M429.56 358.95H419.8V368.1H429.56V358.95Z" stroke="black" stroke-miterlimit="10"/>
<path opacity="0.3" d="M386.62 373.45H376.86V382.6H386.62V373.45Z" stroke="black" stroke-miterlimit="10"/>
<path opacity="0.3" d="M400.93 373.45H391.17V382.6H400.93V373.45Z" stroke="black" stroke-miterlimit="10"/>
<path opacity="0.3" d="M415.24 373.45H405.48V382.6H415.24V373.45Z" stroke="black" stroke-miterlimit="10"/>
<path opacity="0.3" d="M429.56 373.45H419.8V382.6H429.56V373.45Z" stroke="black" stroke-miterlimit="10"/>
<path opacity="0.3" d="M386.62 387.96H376.86V397.11H386.62V387.96Z" stroke="black" stroke-miterlimit="10"/>
<path opacity="0.3" d="M400.93 387.96H391.17V397.11H400.93V387.96Z" stroke="black" stroke-miterlimit="10"/>
<path opacity="0.3" d="M415.24 387.96H405.48V397.11H415.24V387.96Z" stroke="black" stroke-miterlimit="10"/>
<path opacity="0.3" d="M429.56 387.96H419.8V397.11H429.56V387.96Z" stroke="black" stroke-miterlimit="10"/>
<path opacity="0.3" d="M267.69 169.72V434.77" stroke="black" stroke-miterlimit="10"/>
<path opacity="0.3" d="M277.37 169.72V434.77" stroke="black" stroke-miterlimit="10"/>
<path opacity="0.3" d="M287.05 169.72V434.77" stroke="black" stroke-miterlimit="10"/>
<path opacity="0.3" d="M296.73 169.72V434.77" stroke="black" stroke-miterlimit="10"/>
<path opacity="0.3" d="M306.41 169.72V434.77" stroke="black" stroke-miterlimit="10"/>
<path opacity="0.3" d="M316.09 169.72V434.77" stroke="black" stroke-miterlimit="10"/>
<path opacity="0.3" d="M325.77 169.72V434.77" stroke="black" stroke-miterlimit="10"/>
<path opacity="0.3" d="M335.45 169.72V434.77" stroke="black" stroke-miterlimit="10"/>
</g>
<path d="M19.1801 385.1C22.0998 385.628 25.0905 385.628 28.0101 385.1C28.0101 386.89 28.0101 388.78 28.2201 390.74C28.4463 393.603 28.9248 396.441 29.6501 399.22V399.32C29.1601 398.54 27.7101 396.42 27.5801 396.27C25.7501 394.16 20.9601 391.14 18.0801 392.37C17.6059 392.586 17.1827 392.899 16.8381 393.29C16.4935 393.681 16.2354 394.14 16.0806 394.638C15.9257 395.135 15.8777 395.66 15.9397 396.177C16.0017 396.695 16.1722 397.193 16.4401 397.64C17.5001 399.57 20.0501 400.53 22.1201 400.83C24.4501 401.17 29.3601 399.75 29.7501 399.64C30.566 402.447 31.5682 405.196 32.7501 407.87C33.4201 409.44 34.1501 410.99 34.9001 412.54C34.4501 411.88 34.0501 411.3 33.9801 411.22C32.1501 409.11 27.3701 406.1 24.4901 407.32C24.0162 407.536 23.5931 407.85 23.2483 408.24C22.9036 408.631 22.645 409.09 22.4894 409.587C22.3337 410.084 22.2845 410.608 22.3449 411.126C22.4054 411.643 22.5741 412.142 22.8401 412.59C23.9101 414.53 26.4601 415.49 28.5301 415.79C30.6001 416.09 34.8401 414.96 35.9501 414.65L36.8201 416.42C38.2501 419.25 39.6801 422.07 40.9901 424.88C41.4601 425.88 41.8801 426.88 42.3101 427.88C41.9101 427.3 41.5701 426.81 41.5101 426.74C39.6801 424.62 34.9001 421.61 32.0101 422.84C31.5373 423.056 31.1154 423.369 30.7718 423.759C30.4281 424.149 30.1706 424.607 30.0158 425.104C29.8611 425.6 29.8127 426.123 29.8737 426.64C29.9348 427.156 30.1039 427.653 30.3701 428.1C31.4401 430.04 33.9901 431 36.0501 431.3C38.1101 431.6 41.9501 430.59 43.2701 430.22C43.6801 431.22 44.0801 432.28 44.4301 433.29C44.6501 433.99 44.9101 434.64 45.0901 435.36C45.2701 436.08 45.4801 436.75 45.6801 437.44C46.0001 438.78 46.3401 440.16 46.6201 441.44C46.8201 442.35 47.0001 443.23 47.1801 444.11C46.7201 443.11 45.8001 441.2 45.7001 441.05C44.2101 438.68 39.9501 434.98 36.9101 435.75C36.4038 435.891 35.9332 436.137 35.5297 436.474C35.1262 436.811 34.7991 437.23 34.5701 437.703C34.3411 438.176 34.2156 438.692 34.2018 439.218C34.188 439.743 34.2863 440.265 34.4901 440.75C35.2501 442.82 37.6201 444.16 39.6201 444.75C41.8201 445.42 46.6901 444.81 47.3001 444.75C47.5901 446.2 47.8601 447.62 48.1001 448.96C48.2801 449.96 48.4401 450.96 48.5901 451.96H50.5401C50.3501 450.91 50.1501 449.81 49.9201 448.67C49.6301 447.19 49.2901 445.62 48.9201 444C50.3858 443.42 51.815 442.752 53.2001 442C54.8001 443.74 58.9101 445.77 59.4501 446C58.8901 447.37 58.3301 448.7 57.7801 449.95C57.4901 450.64 57.2001 451.29 56.9101 451.95H59.0001C59.1701 451.53 59.3501 451.12 59.5201 450.69C60.1001 449.29 60.6801 447.79 61.2701 446.24C61.8601 446.37 66.6801 447.35 68.9301 446.84C70.9301 446.38 73.4401 445.23 74.3501 443.21C74.5808 442.746 74.712 442.24 74.7351 441.722C74.7583 441.205 74.6729 440.689 74.4846 440.207C74.2962 439.724 74.009 439.287 73.6414 438.922C73.2738 438.558 72.8339 438.274 72.3501 438.09C69.3501 437.09 64.8501 440.46 63.1901 442.71C63.0901 442.84 62.1901 444.4 61.6301 445.4C61.8701 444.76 62.1101 444.15 62.3401 443.5C62.8201 442.21 63.2501 440.9 63.7201 439.5C63.9301 438.82 64.1401 438.13 64.3401 437.43C64.5401 436.73 64.7101 435.98 64.9001 435.26C65.3101 433.56 65.6301 431.82 65.9001 430.06C67.0401 430.48 71.0801 431.88 73.1701 431.74C75.2601 431.6 77.8701 430.82 79.0801 428.97C79.3792 428.543 79.585 428.058 79.6842 427.547C79.7834 427.035 79.7737 426.508 79.6558 426.001C79.5379 425.493 79.3143 425.016 78.9998 424.601C78.6852 424.185 78.2867 423.841 77.8301 423.59C75.0001 422.06 70.0001 424.71 68.0001 426.68C67.8801 426.8 66.6201 428.38 65.9401 429.26C66.1001 428.2 66.2801 427.14 66.4101 426.07C66.7901 422.96 67.0901 419.8 67.4101 416.66L67.7101 413.77C68.1201 413.92 72.8801 415.7 75.2301 415.53C77.3101 415.39 79.9301 414.62 81.1401 412.77C81.4392 412.343 81.645 411.858 81.7442 411.347C81.8434 410.835 81.8337 410.308 81.7158 409.801C81.5978 409.293 81.3743 408.816 81.0598 408.401C80.7452 407.985 80.3467 407.641 79.8901 407.39C77.1101 405.96 72.1101 408.6 70.1301 410.58C69.9801 410.73 68.1301 413 67.7301 413.58C67.9601 411.46 68.2001 409.35 68.5201 407.28C68.9473 404.483 69.5553 401.718 70.3401 399C70.5201 399.07 75.4901 401 77.9001 400.78C79.9801 400.63 82.6001 399.86 83.8001 398.01C84.0979 397.584 84.3029 397.1 84.4018 396.59C84.5008 396.08 84.4915 395.555 84.3746 395.049C84.2578 394.543 84.0358 394.067 83.7233 393.652C83.4107 393.237 83.0144 392.892 82.5601 392.64C79.7701 391.2 74.7801 393.85 72.8001 395.82C72.6701 395.95 71.2801 397.68 70.6401 398.52L70.4801 398.43C71.338 395.719 72.4391 393.092 73.7701 390.58C74.4801 389.18 75.2401 387.89 76.0101 386.65C76.9001 387.09 81.0101 389.08 83.1701 389.16C85.3301 389.24 87.9401 388.77 89.3401 387.06C89.6835 386.669 89.9408 386.21 90.0952 385.713C90.2496 385.216 90.2978 384.692 90.2365 384.175C90.1752 383.658 90.0058 383.16 89.7394 382.713C89.473 382.266 89.1155 381.88 88.6901 381.58C86.0801 379.85 80.8301 381.93 78.6901 383.68C78.6101 383.74 78.0601 384.29 77.4701 384.88C77.4701 384.75 77.4701 384.6 77.4701 384.43C77.4701 384.26 77.6401 384.15 77.7301 384.02C79.0401 382.02 80.3601 380.32 81.5401 378.8C82.2201 377.94 82.8501 377.18 83.4501 376.47C84.5501 376.47 88.9901 376.32 90.9301 375.41C92.8701 374.5 94.9301 372.86 95.4401 370.7C95.5657 370.194 95.5833 369.668 95.4919 369.155C95.4005 368.642 95.2021 368.154 94.9097 367.723C94.6173 367.292 94.2373 366.927 93.7946 366.653C93.3519 366.378 92.8563 366.2 92.3401 366.13C89.2201 365.8 85.5201 370.07 84.3401 372.62C84.2401 372.84 83.1001 376.48 83.1601 376.48H83.2301C82.6401 377.15 82.0101 377.88 81.3501 378.68C80.1301 380.17 78.7801 381.87 77.4301 383.8C77.4301 380.8 76.8701 374.53 72.8901 374.15C67.6401 373.65 66.1401 379.65 69.3901 382.9C71.2548 384.638 73.7325 385.566 76.2801 385.48C75.2801 386.98 74.2801 388.59 73.2801 390.35C71.8888 392.859 70.721 395.486 69.7901 398.2V398.3C69.7901 397.38 69.7901 394.82 69.7901 394.62C69.4301 391.84 67.1101 386.69 64.0201 386.12C63.506 386.039 62.9805 386.068 62.4782 386.204C61.9759 386.34 61.5079 386.581 61.1049 386.91C60.7019 387.24 60.373 387.65 60.1395 388.115C59.9061 388.581 59.7734 389.09 59.7501 389.61C59.5701 391.82 61.1701 394.02 62.7501 395.42C64.5101 396.99 69.3901 398.51 69.7501 398.63C68.8738 401.417 68.1856 404.26 67.6901 407.14C67.3901 408.81 67.1401 410.51 66.9101 412.22C66.9101 411.42 66.9101 410.71 66.9101 410.61C66.5501 407.84 64.2301 402.69 61.1401 402.12C60.626 402.039 60.1005 402.068 59.5982 402.204C59.0959 402.34 58.6279 402.581 58.2249 402.91C57.8219 403.24 57.493 403.65 57.2595 404.115C57.0261 404.581 56.8934 405.09 56.8701 405.61C56.6901 407.81 58.2901 410.02 59.8701 411.41C61.4501 412.8 65.5901 414.2 66.6901 414.55C66.6101 415.21 66.5201 415.86 66.4401 416.55C66.0701 419.69 65.7001 422.83 65.2601 425.9C65.1001 426.98 64.9001 428.04 64.7101 429.1C64.7101 428.4 64.7101 427.8 64.7101 427.71C64.3501 424.94 62.0301 419.79 58.9501 419.22C58.4354 419.139 57.9095 419.168 57.4066 419.304C56.9038 419.44 56.4352 419.681 56.0314 420.01C55.6277 420.339 55.2978 420.75 55.0632 421.215C54.8287 421.68 54.6947 422.189 54.6701 422.71C54.4901 424.91 56.0901 427.12 57.6701 428.51C59.2501 429.9 62.9801 431.16 64.2801 431.59C64.0501 432.67 63.8301 433.75 63.5601 434.79C63.3601 435.49 63.2101 436.18 62.9701 436.88L62.3101 438.94C61.8401 440.23 61.3101 441.57 60.8701 442.82C60.5301 443.69 60.2001 444.52 59.8701 445.35C60.0401 444.27 60.3301 442.16 60.3301 441.98C60.3034 439.519 59.6384 437.107 58.4001 434.98C58.4318 434.395 58.3299 433.81 58.102 433.27C57.8741 432.73 57.5263 432.249 57.0849 431.864C56.6435 431.478 56.1202 431.198 55.5545 431.045C54.9888 430.892 54.3957 430.87 53.8201 430.98C50.8201 431.79 48.8201 437.1 48.7301 439.9C48.7301 440.06 48.8301 441.9 48.9101 443C48.7601 442.34 48.6201 441.7 48.4501 441C48.1401 439.66 47.7801 438.33 47.4001 436.9C47.2001 436.22 46.9901 435.53 46.7801 434.83C46.5701 434.13 46.2901 433.43 46.0401 432.71C45.4501 431.08 44.7601 429.45 44.0401 427.82C45.2101 427.54 49.3601 426.48 51.0401 425.2C52.7201 423.92 54.4501 421.85 54.4401 419.64C54.4544 419.12 54.359 418.602 54.1603 418.122C53.9616 417.641 53.664 417.207 53.2868 416.849C52.9096 416.49 52.4612 416.215 51.9708 416.041C51.4803 415.868 50.9588 415.799 50.4401 415.84C47.3301 416.18 44.6201 421.14 44.0601 423.84C44.0601 424.01 43.8401 426.03 43.7601 427.13C43.3101 426.13 42.8701 425.18 42.3901 424.21C41.0001 421.41 39.5001 418.61 38.0201 415.82C37.5701 414.96 37.1301 414.1 36.6801 413.25C37.1001 413.15 42.0601 412 43.9201 410.57C45.5801 409.3 47.3401 407.22 47.3201 405C47.3345 404.48 47.2392 403.963 47.0404 403.483C46.8416 403.002 46.5438 402.569 46.1664 402.212C45.789 401.854 45.3404 401.58 44.85 401.407C44.3596 401.235 43.8383 401.167 43.3201 401.21C40.2001 401.55 37.5001 406.51 36.9301 409.21C36.9301 409.42 36.6301 412.31 36.6001 413.05C35.6001 411.16 34.6601 409.27 33.7901 407.37C32.5973 404.807 31.5751 402.168 30.7301 399.47C30.9201 399.47 36.1001 398.25 38.0101 396.78C39.6701 395.51 41.4301 393.43 41.4101 391.22C41.4244 390.7 41.329 390.182 41.1303 389.702C40.9316 389.221 40.634 388.787 40.2568 388.429C39.8796 388.07 39.4312 387.795 38.9408 387.621C38.4503 387.448 37.9288 387.379 37.4101 387.42C34.2901 387.76 31.5901 392.72 31.0201 395.42C31.0201 395.6 30.7901 397.81 30.7101 398.86H30.5401C29.7602 396.123 29.2247 393.322 28.9401 390.49C28.7701 388.93 28.6901 387.44 28.6401 385.98C29.6401 385.86 34.1301 385.26 36.0001 384.13C37.8701 383 39.7601 381.13 40.0001 378.97C40.0721 378.455 40.0345 377.93 39.8899 377.43C39.7453 376.93 39.4969 376.467 39.1609 376.069C38.825 375.672 38.409 375.35 37.9402 375.124C37.4714 374.899 36.9602 374.775 36.4401 374.76C33.3001 374.76 30.0701 379.39 29.2101 382.05C29.2101 382.19 28.8501 383.72 28.6401 384.83C28.6401 384.17 28.6401 383.49 28.6401 382.83C28.6401 380.46 28.7901 378.29 28.9401 376.37C29.0301 375.28 29.1401 374.3 29.2501 373.37C30.1501 372.74 33.7801 370.19 34.8901 368.37C36.0001 366.55 36.8901 364.01 36.0601 361.95C35.8845 361.46 35.6079 361.012 35.2482 360.635C34.8885 360.258 34.4538 359.962 33.9721 359.764C33.4904 359.566 32.9725 359.471 32.452 359.486C31.9314 359.501 31.4197 359.625 30.9501 359.85C28.1701 361.29 27.4401 366.85 27.9001 369.65C27.9001 369.89 28.9901 373.55 29.0401 373.52H29.0901C28.9701 374.41 28.8501 375.35 28.7401 376.39C28.5501 378.31 28.3501 380.49 28.2901 382.87C28.2901 383.3 28.2901 383.75 28.2901 384.2C27.0901 382.36 23.2901 377.2 19.2901 378.3C14.0501 379.79 15.1901 384.16 19.1801 385.1Z" fill="#263238"/>
<path d="M89.8402 409.24C91.7056 409.572 93.6149 409.572 95.4802 409.24C95.4639 410.442 95.5106 411.643 95.6202 412.84C95.7574 414.667 96.0586 416.477 96.5202 418.25C96.5235 418.273 96.5235 418.297 96.5202 418.32C96.2102 417.82 95.2802 416.47 95.2002 416.37C94.0302 415.02 90.9802 413.1 89.1402 413.88C88.8415 414.023 88.5762 414.227 88.3612 414.479C88.1463 414.731 87.9866 415.026 87.8923 415.343C87.7981 415.661 87.7715 415.994 87.8142 416.323C87.8569 416.651 87.968 416.967 88.1402 417.25C88.5671 417.823 89.1121 418.299 89.7383 418.644C90.3645 418.989 91.0574 419.196 91.7702 419.25C93.4231 419.24 95.0649 418.98 96.6402 418.48C97.1501 420.276 97.785 422.033 98.5402 423.74C98.9702 424.74 99.4402 425.74 99.9202 426.74L99.3302 425.9C98.1602 424.55 95.1102 422.63 93.2702 423.41C92.9719 423.552 92.7066 423.755 92.4918 424.006C92.2769 424.257 92.1172 424.551 92.0229 424.868C91.9286 425.184 91.9019 425.517 91.9445 425.845C91.9871 426.173 92.0981 426.488 92.2702 426.77C92.6939 427.347 93.238 427.825 93.8649 428.17C94.4917 428.515 95.1863 428.72 95.9002 428.77C97.5046 428.776 99.1002 428.533 100.63 428.05C100.82 428.42 101 428.8 101.19 429.18C102.1 430.99 103.01 432.78 103.85 434.58C104.15 435.21 104.42 435.84 104.69 436.47C104.44 436.1 104.22 435.79 104.18 435.75C103.01 434.4 99.9602 432.47 98.1202 433.25C97.8069 433.382 97.5255 433.58 97.295 433.83C97.0646 434.08 96.8904 434.377 96.7843 434.7C96.6781 435.023 96.6425 435.365 96.6798 435.703C96.717 436.042 96.8263 436.368 97.0002 436.66C97.4271 437.233 97.9721 437.709 98.5982 438.054C99.2244 438.399 99.9174 438.606 100.63 438.66C102.193 438.67 103.749 438.437 105.24 437.97C105.5 438.62 105.76 439.28 105.98 439.97C106.12 440.41 106.29 440.83 106.4 441.29C106.51 441.75 106.65 442.18 106.77 442.62C106.98 443.47 107.2 444.35 107.37 445.19C107.5 445.77 107.62 446.33 107.73 446.89C107.44 446.26 106.85 445.04 106.79 444.94C105.79 443.43 103.11 441.06 101.18 441.56C100.86 441.65 100.563 441.806 100.308 442.018C100.052 442.231 99.8445 442.495 99.6982 442.793C99.5518 443.091 99.4702 443.417 99.4585 443.749C99.4468 444.081 99.5053 444.412 99.6302 444.72C99.9556 445.362 100.418 445.925 100.985 446.369C101.551 446.813 102.209 447.128 102.91 447.29C104.534 447.537 106.186 447.537 107.81 447.29C108 448.21 108.17 449.12 108.32 449.98C108.43 450.63 108.54 451.25 108.63 451.86H109.88C109.76 451.19 109.63 450.49 109.48 449.76C109.3 448.82 109.08 447.81 108.85 446.76C109.786 446.386 110.697 445.955 111.58 445.47C112.788 446.507 114.134 447.372 115.58 448.04C115.22 448.92 114.87 449.77 114.52 450.57L113.96 451.84H115.28L115.61 451.03C115.98 450.14 116.35 449.18 116.73 448.2C118.333 448.567 119.98 448.695 121.62 448.58C122.33 448.465 123.006 448.198 123.603 447.797C124.2 447.397 124.704 446.873 125.08 446.26C125.228 445.962 125.312 445.636 125.325 445.304C125.339 444.972 125.282 444.64 125.158 444.331C125.034 444.023 124.847 443.744 124.607 443.512C124.368 443.281 124.083 443.103 123.77 442.99C121.87 442.35 118.98 444.5 117.92 445.94C117.86 446.03 117.28 447.02 116.92 447.66C117.07 447.25 117.22 446.86 117.37 446.44C117.67 445.62 117.95 444.79 118.25 443.89C118.38 443.45 118.51 443.01 118.65 442.57C118.79 442.13 118.88 441.65 119 441.18C119.26 440.1 119.47 438.99 119.65 437.87C121.137 438.46 122.705 438.818 124.3 438.93C125.019 438.928 125.728 438.77 126.38 438.466C127.031 438.162 127.608 437.72 128.07 437.17C128.26 436.898 128.39 436.588 128.453 436.262C128.516 435.936 128.509 435.6 128.434 435.277C128.358 434.954 128.216 434.65 128.015 434.385C127.815 434.12 127.561 433.9 127.27 433.74C125.49 432.82 122.27 434.51 121.04 435.74C120.96 435.82 120.15 436.82 119.72 437.39C119.83 436.71 119.94 436.04 120.02 435.39C120.27 433.39 120.46 431.39 120.65 429.39C120.71 428.77 120.78 428.16 120.84 427.55C121.1 427.65 124.14 428.78 125.64 428.67C126.359 428.668 127.068 428.51 127.72 428.206C128.371 427.902 128.948 427.46 129.41 426.91C129.602 426.639 129.734 426.33 129.799 426.004C129.863 425.678 129.857 425.342 129.783 425.018C129.708 424.694 129.566 424.39 129.366 424.125C129.165 423.86 128.911 423.64 128.62 423.48C126.84 422.56 123.62 424.25 122.39 425.48C122.29 425.57 121.13 427.02 120.85 427.41C121 426.06 121.15 424.71 121.36 423.41C121.629 421.627 122.014 419.863 122.51 418.13C122.63 418.13 125.8 419.37 127.34 419.26C128.059 419.258 128.768 419.1 129.42 418.796C130.071 418.492 130.648 418.05 131.11 417.5C131.3 417.227 131.431 416.917 131.493 416.59C131.556 416.263 131.55 415.926 131.474 415.602C131.399 415.278 131.256 414.973 131.056 414.708C130.855 414.442 130.601 414.221 130.31 414.06C128.53 413.15 125.31 414.84 124.08 416.06C124 416.14 123.08 417.24 122.71 417.78L122.6 417.73C123.15 416.004 123.852 414.331 124.7 412.73C125.16 411.84 125.64 411.01 126.13 410.22C127.562 410.987 129.104 411.53 130.7 411.83C131.415 411.903 132.136 411.821 132.816 411.589C133.496 411.358 134.118 410.983 134.64 410.49C134.86 410.24 135.024 409.948 135.123 409.63C135.222 409.313 135.254 408.979 135.215 408.649C135.176 408.319 135.069 408 134.899 407.715C134.729 407.429 134.501 407.182 134.23 406.99C132.56 405.88 129.23 407.21 127.81 408.33L127.03 409.09C127.03 409.01 127.03 408.91 127.03 408.8L127.19 408.55C128.03 407.29 128.87 406.18 129.63 405.21C130.06 404.66 130.47 404.21 130.85 403.73C132.465 403.743 134.073 403.514 135.62 403.05C136.287 402.786 136.89 402.381 137.387 401.864C137.884 401.346 138.264 400.727 138.5 400.05C138.581 399.726 138.591 399.389 138.532 399.061C138.472 398.732 138.344 398.42 138.155 398.145C137.966 397.87 137.72 397.639 137.435 397.465C137.15 397.292 136.831 397.181 136.5 397.14C134.5 396.92 132.15 399.65 131.42 401.28C131.36 401.42 130.63 403.74 130.67 403.74C130.29 404.16 129.89 404.63 129.47 405.14C128.7 406.14 127.83 407.14 126.97 408.41C126.97 406.49 126.61 402.49 124.07 402.25C120.72 401.93 119.76 405.76 121.84 407.84C123.032 408.948 124.614 409.538 126.24 409.48C125.59 410.48 124.95 411.48 124.34 412.59C123.454 414.188 122.711 415.861 122.12 417.59C122.12 417.59 122.12 417.64 122.12 417.66C122.12 417.07 122.12 415.43 122.12 415.31C121.89 413.53 120.4 410.25 118.44 409.88C118.112 409.829 117.776 409.848 117.455 409.935C117.135 410.022 116.836 410.176 116.578 410.387C116.321 410.597 116.11 410.859 115.961 411.156C115.811 411.453 115.726 411.778 115.71 412.11C115.736 412.828 115.92 413.532 116.248 414.172C116.577 414.811 117.042 415.37 117.61 415.81C118.989 416.721 120.5 417.412 122.09 417.86C121.535 419.644 121.095 421.461 120.77 423.3C120.58 424.37 120.42 425.45 120.28 426.54C120.28 426.03 120.28 425.54 120.28 425.54C120.05 423.76 118.57 420.48 116.6 420.11C116.272 420.059 115.936 420.078 115.615 420.165C115.295 420.252 114.996 420.406 114.738 420.617C114.481 420.827 114.27 421.089 114.121 421.386C113.971 421.683 113.886 422.008 113.87 422.34C113.903 423.057 114.089 423.758 114.417 424.397C114.745 425.035 115.207 425.596 115.77 426.04C117.107 426.929 118.575 427.604 120.12 428.04C120.12 428.46 120.01 428.88 119.96 429.29C119.72 431.29 119.49 433.29 119.21 435.29C119.11 435.98 118.98 436.65 118.86 437.29C118.86 436.84 118.86 436.46 118.86 436.4C118.64 434.63 117.15 431.34 115.18 430.98C114.852 430.931 114.517 430.951 114.197 431.039C113.877 431.126 113.578 431.28 113.321 431.49C113.064 431.7 112.854 431.962 112.704 432.258C112.554 432.554 112.467 432.878 112.45 433.21C112.483 433.927 112.669 434.628 112.997 435.267C113.325 435.905 113.787 436.466 114.35 436.91C115.649 437.79 117.076 438.464 118.58 438.91C118.43 439.6 118.29 440.29 118.11 440.91C117.99 441.36 117.89 441.8 117.74 442.24C117.59 442.68 117.46 443.12 117.32 443.56C117.02 444.38 116.71 445.24 116.4 446.04L115.76 447.65C115.86 446.97 116.05 445.65 116.05 445.5C116.03 443.929 115.606 442.39 114.82 441.03C114.835 440.857 114.835 440.683 114.82 440.51C114.779 440.181 114.668 439.864 114.496 439.581C114.324 439.297 114.094 439.053 113.822 438.865C113.549 438.676 113.24 438.547 112.914 438.486C112.588 438.425 112.253 438.433 111.93 438.51C110 439.02 108.77 442.42 108.68 444.2C108.68 444.31 108.74 445.45 108.8 446.2C108.7 445.78 108.61 445.37 108.51 444.94C108.3 444.08 108.08 443.24 107.83 442.32C107.7 441.89 107.57 441.45 107.43 441C107.29 440.55 107.12 440.1 106.97 439.65C106.58 438.6 106.15 437.56 105.68 436.52C107.245 436.198 108.749 435.635 110.14 434.85C110.738 434.452 111.242 433.928 111.617 433.315C111.992 432.701 112.229 432.014 112.31 431.3C112.32 430.968 112.259 430.639 112.133 430.332C112.006 430.025 111.816 429.749 111.576 429.52C111.335 429.292 111.049 429.117 110.736 429.007C110.423 428.896 110.091 428.853 109.76 428.88C107.76 429.09 106.04 432.26 105.68 434.01C105.68 434.12 105.54 435.4 105.49 436.11C105.2 435.49 104.92 434.87 104.62 434.25C103.73 432.46 102.77 430.67 101.83 428.89L100.97 427.25C101.24 427.18 104.4 426.45 105.59 425.54C106.187 425.138 106.689 424.611 107.064 423.997C107.438 423.383 107.676 422.695 107.76 421.98C107.77 421.648 107.709 421.319 107.583 421.012C107.456 420.705 107.266 420.429 107.026 420.2C106.785 419.972 106.499 419.797 106.186 419.687C105.873 419.576 105.541 419.533 105.21 419.56C103.21 419.78 101.49 422.94 101.13 424.69C101.13 424.83 100.94 426.69 100.92 427.15C100.29 425.94 99.6802 424.73 99.1202 423.52C98.3468 421.898 97.6787 420.228 97.1202 418.52C97.2402 418.52 100.55 417.74 101.77 416.8C102.368 416.402 102.872 415.878 103.247 415.265C103.622 414.651 103.859 413.964 103.94 413.25C103.95 412.917 103.889 412.586 103.762 412.278C103.635 411.97 103.444 411.693 103.203 411.463C102.961 411.234 102.674 411.058 102.36 410.947C102.046 410.837 101.712 410.793 101.38 410.82C99.3802 411.04 97.6702 414.21 97.3102 415.96C97.3102 416.07 97.1602 417.48 97.1102 418.15H97.0002C96.5061 416.404 96.1714 414.617 96.0002 412.81C95.8902 411.81 95.8402 410.81 95.8102 409.93C97.4276 409.777 99.0123 409.379 100.51 408.75C101.148 408.42 101.705 407.954 102.144 407.386C102.583 406.817 102.892 406.16 103.05 405.46C103.097 405.131 103.073 404.796 102.982 404.477C102.89 404.157 102.731 403.861 102.517 403.607C102.303 403.353 102.037 403.147 101.738 403.003C101.439 402.859 101.112 402.779 100.78 402.77C98.7802 402.77 96.7202 405.72 96.1602 407.42C96.1602 407.51 95.9302 408.49 95.8002 409.2C95.8002 408.78 95.8002 408.34 95.8002 407.94C95.8002 406.43 95.9002 405.04 95.9902 403.82C96.0502 403.12 96.1202 402.49 96.1902 401.91C97.5448 401.031 98.7586 399.952 99.7902 398.71C100.203 398.121 100.483 397.449 100.613 396.742C100.742 396.034 100.717 395.307 100.54 394.61C100.429 394.297 100.252 394.011 100.023 393.77C99.7937 393.53 99.5162 393.34 99.2088 393.214C98.9014 393.087 98.5708 393.027 98.2385 393.037C97.9063 393.046 97.5798 393.126 97.2802 393.27C95.5002 394.19 95.0302 397.77 95.2802 399.53C95.2802 399.68 95.9702 402.02 96.0002 402C95.9202 402.57 95.8402 403.17 95.7702 403.84C95.6502 405.06 95.5202 406.45 95.4902 407.97C95.4902 408.25 95.4902 408.53 95.4902 408.82C94.7302 407.65 92.3302 404.35 89.7302 405.05C86.5702 405.85 87.3002 408.63 89.8402 409.24Z" fill="#263238"/>
<path d="M76.8604 385.48L76.6304 385.71C76.6804 385.64 76.7204 385.56 76.7704 385.48H76.8604Z" fill="#263238"/>
<path d="M243.39 72.6099H107.67C96.6242 72.6099 87.6699 81.5642 87.6699 92.6099V394.57C87.6699 405.616 96.6242 414.57 107.67 414.57H243.39C254.436 414.57 263.39 405.616 263.39 394.57V92.6099C263.39 81.5642 254.436 72.6099 243.39 72.6099Z" fill="#FFC100" stroke="#263238" stroke-miterlimit="10"/>
<path d="M263.39 104.1V93.6999C263.391 90.9308 262.847 88.1885 261.788 85.6298C260.729 83.0711 259.177 80.7461 257.219 78.7876C255.262 76.8291 252.937 75.2754 250.379 74.2154C247.821 73.1554 245.079 72.6099 242.31 72.6099H108.76C103.167 72.6099 97.8022 74.8318 93.847 78.787C89.8919 82.7421 87.6699 88.1064 87.6699 93.6999V104.1H263.39Z" fill="white" stroke="#263238" stroke-miterlimit="10"/>
<path d="M88.6001 399.67C89.9231 403.984 92.5956 407.76 96.2246 410.442C99.8536 413.124 104.248 414.571 108.76 414.57H242.31C246.822 414.57 251.215 413.122 254.844 410.44C258.473 407.758 261.146 403.983 262.47 399.67H88.6001Z" fill="white" stroke="#263238" stroke-miterlimit="10"/>
<path d="M243.07 84.6597H226.4V93.7997H243.07V84.6597Z" stroke="#263238" stroke-width="0.821067" stroke-linecap="round" stroke-linejoin="round"/>
<path d="M239.4 84.6597H226.4V93.7997H239.4V84.6597Z" fill="#263238" stroke="#263238" stroke-width="0.725073" stroke-linecap="round" stroke-linejoin="round"/>
<path d="M245.39 87.2197H243.04V91.2497H245.39V87.2197Z" fill="#263238" stroke="#263238" stroke-width="0.725073" stroke-linecap="round" stroke-linejoin="round"/>
<path d="M106.28 87.5H103.22V92.74H106.28V87.5Z" fill="#263238" stroke="#263238" stroke-width="0.883086" stroke-linecap="round" stroke-linejoin="round"/>
<path d="M111.08 85.6597H108.02V92.7397H111.08V85.6597Z" fill="#263238" stroke="#263238" stroke-width="0.883086" stroke-linecap="round" stroke-linejoin="round"/>
<path d="M115.88 83.48H112.82V92.73H115.88V83.48Z" fill="#263238" stroke="#263238" stroke-width="0.883086" stroke-linecap="round" stroke-linejoin="round"/>
<path d="M246.46 69.7998H102.19C97.5356 69.7998 93.0717 71.6488 89.7804 74.9401C86.4891 78.2313 84.6401 82.6953 84.6401 87.3498V402.51C84.6401 404.814 85.0942 407.096 85.9762 409.224C86.8583 411.353 88.1512 413.287 89.781 414.916C91.4108 416.545 93.3456 417.837 95.4748 418.718C97.604 419.598 99.8859 420.051 102.19 420.05H246.46C251.112 420.05 255.573 418.202 258.863 414.912C262.152 411.623 264 407.162 264 402.51V87.3498C264.001 85.0456 263.549 82.7637 262.668 80.6345C261.787 78.5053 260.495 76.5705 258.866 74.9407C257.237 73.3109 255.303 72.018 253.175 71.1359C251.046 70.2538 248.764 69.7998 246.46 69.7998ZM256.2 394.14C256.2 398.792 254.352 403.253 251.063 406.542C247.773 409.832 243.312 411.68 238.66 411.68H110C105.348 411.68 100.887 409.832 97.5975 406.542C94.3081 403.253 92.4601 398.792 92.4601 394.14V95.7198C92.4588 93.4156 92.9115 91.1337 93.7924 89.0045C94.6733 86.8753 95.9651 84.9405 97.5939 83.3107C99.2228 81.6809 101.157 80.388 103.286 79.5059C105.414 78.6238 107.696 78.1698 110 78.1698H133.94L135.43 85.0898C135.86 87.1131 136.973 88.9266 138.583 90.2252C140.194 91.5238 142.202 92.2282 144.27 92.2198H208.3C210.367 92.2259 212.373 91.5204 213.981 90.2221C215.589 88.9237 216.701 87.1114 217.13 85.0898L218.62 78.1698H238.62C240.928 78.1645 243.214 78.6147 245.347 79.4944C247.48 80.3741 249.419 81.6662 251.052 83.2965C252.685 84.9268 253.981 86.8634 254.864 88.9952C255.747 91.127 256.201 93.4122 256.2 95.7198V394.14Z" fill="#263238" stroke="#263238" stroke-width="1.6935" stroke-miterlimit="10"/>
<path d="M229.41 125.19H118.14C113.54 125.19 109.81 128.919 109.81 133.52V375.53C109.81 380.13 113.54 383.86 118.14 383.86H229.41C234.011 383.86 237.74 380.13 237.74 375.53V133.52C237.74 128.919 234.011 125.19 229.41 125.19Z" fill="white" stroke="#263238" stroke-miterlimit="10"/>
<path d="M157.07 140.42C159.17 140.42 160.25 141.67 160.25 143.87V144.3H158.25V143.73C158.25 142.73 157.86 142.38 157.17 142.38C156.48 142.38 156.1 142.75 156.1 143.73C156.1 146.55 160.31 147.08 160.31 151C160.31 153.19 159.21 154.45 157.1 154.45C154.99 154.45 153.88 153.19 153.88 151V150.16H155.88V151.16C155.88 152.16 156.31 152.49 157 152.49C157.69 152.49 158.11 152.14 158.11 151.16C158.11 148.34 153.9 147.81 153.9 143.89C153.9 141.67 155 140.42 157.07 140.42Z" fill="#263238"/>
<path d="M161.51 140.57H163.66V154.29H161.51V140.57Z" fill="#263238"/>
<path d="M168.46 146.65H171.46V151C171.46 153.19 170.36 154.45 168.25 154.45C166.14 154.45 165.03 153.19 165.03 151V143.87C165.03 141.67 166.13 140.42 168.25 140.42C170.37 140.42 171.46 141.67 171.46 143.87V145.2H169.46V143.73C169.46 142.73 169.03 142.38 168.35 142.38C167.67 142.38 167.23 142.75 167.23 143.73V151.14C167.23 152.14 167.66 152.47 168.35 152.47C169.04 152.47 169.46 152.12 169.46 151.14V148.61H168.46V146.65Z" fill="#263238"/>
<path d="M174.79 144.36V154.29H172.85V140.57H175.56L177.77 148.79V140.57H179.69V154.29H177.48L174.79 144.36Z" fill="#263238"/>
<path d="M184.28 140.57H186.44V154.29H184.28V140.57Z" fill="#263238"/>
<path d="M189.93 144.36V154.29H188V140.57H190.7L192.92 148.79V140.57H194.84V154.29H192.62L189.93 144.36Z" fill="#263238"/>
<path d="M121.11 192.81V193.81H118.58V197.49H121.68V198.49H117.43V188.24H121.68V189.24H118.58V192.77L121.11 192.81Z" fill="#263238"/>
<path d="M126.56 198.56H125.45L123.73 190.33V198.57H122.73V188.24H124.34L126.04 196.49L127.68 188.24H129.29V198.57H128.19V190.26L126.56 198.56Z" fill="#263238"/>
<path d="M131.63 196.49L131.23 198.57H130.17L132.17 188.24H133.84L135.84 198.57H134.68L134.29 196.49H131.63ZM131.78 195.49H134.08L132.92 189.49L131.78 195.49Z" fill="#263238"/>
<path d="M137.85 188.24V198.57H136.69V188.24H137.85Z" fill="#263238"/>
<path d="M139 198.57V188.24H140.15V197.53H143.1V198.53L139 198.57Z" fill="#263238"/>
<path d="M147.45 196.49L147.06 198.57H146L148 188.24H149.67L151.67 198.57H150.52L150.12 196.49H147.45ZM147.6 195.49H149.91L148.74 189.49L147.6 195.49Z" fill="#263238"/>
<path d="M154.94 188.24C156.55 188.24 157.29 189.24 157.29 190.81V196C157.29 197.58 156.55 198.55 154.94 198.55H152.52V188.24H154.94ZM154.94 197.53C155.77 197.53 156.17 197.01 156.17 196.06V190.75C156.17 189.8 155.77 189.28 154.93 189.28H153.69V197.53H154.94Z" fill="#263238"/>
<path d="M160.78 188.24C162.39 188.24 163.13 189.24 163.13 190.81V196C163.13 197.58 162.39 198.55 160.78 198.55H158.36V188.24H160.78ZM160.78 197.53C161.61 197.53 162.01 197.01 162.01 196.06V190.75C162.01 189.8 161.61 189.28 160.76 189.28H159.52V197.53H160.78Z" fill="#263238"/>
<path d="M166.51 188.24C168.14 188.24 168.82 189.06 168.82 190.6V191.44C168.82 192.58 168.42 193.29 167.53 193.57C168.48 193.85 168.83 194.62 168.83 195.72V197.33C168.792 197.754 168.865 198.181 169.04 198.57H167.87C167.709 198.174 167.644 197.746 167.68 197.32V195.69C167.68 194.53 167.13 194.16 166.17 194.16H165.36V198.57H164.21V188.24H166.51ZM166.22 193.11C167.13 193.11 167.68 192.81 167.68 191.69V190.69C167.68 189.76 167.34 189.27 166.48 189.27H165.36V193.1L166.22 193.11Z" fill="#263238"/>
<path d="M173.7 192.81V193.81H171.18V197.49H174.28V198.49H170V188.24H174.26V189.24H171.16V192.77L173.7 192.81Z" fill="#263238"/>
<path d="M179.81 190.72V191H178.72V190.66C178.72 189.73 178.36 189.18 177.54 189.18C176.72 189.18 176.36 189.73 176.36 190.64C176.36 192.96 179.83 193.18 179.83 196.09C179.83 197.66 179.07 198.68 177.49 198.68C175.91 198.68 175.17 197.68 175.17 196.09V195.5H176.25V196.15C176.25 197.08 176.64 197.63 177.46 197.63C178.28 197.63 178.67 197.08 178.67 196.15C178.67 193.85 175.22 193.63 175.22 190.72C175.22 189.12 175.96 188.13 177.51 188.13C179.06 188.13 179.81 189.15 179.81 190.72Z" fill="#263238"/>
<path d="M185.3 190.72V191H184.21V190.66C184.21 189.73 183.86 189.18 183.03 189.18C182.2 189.18 181.85 189.73 181.85 190.64C181.85 192.96 185.32 193.18 185.32 196.09C185.32 197.66 184.56 198.68 182.98 198.68C181.4 198.68 180.67 197.68 180.67 196.09V195.5H181.74V196.15C181.74 197.08 182.13 197.63 182.95 197.63C183.77 197.63 184.17 197.08 184.17 196.15C184.17 193.85 180.71 193.63 180.71 190.72C180.71 189.12 181.45 188.13 183 188.13C184.55 188.13 185.3 189.15 185.3 190.72Z" fill="#263238"/>
<path d="M119.69 239.9C121.31 239.9 122.01 240.9 122.01 242.42V243.67C122.064 244.002 122.04 244.342 121.94 244.664C121.839 244.985 121.665 245.278 121.43 245.52C121.196 245.762 120.909 245.946 120.591 246.057C120.273 246.168 119.934 246.203 119.6 246.16H118.6V250.24H117.45V239.9H119.69ZM119.6 245.13C120.46 245.13 120.87 244.73 120.87 243.74V242.37C120.87 241.37 120.53 240.95 119.69 240.95H118.58V245.13H119.6Z" fill="#263238"/>
<path d="M123.88 248.15L123.48 250.24H122.42L124.42 239.9H126.09L128.09 250.24H126.9L126.5 248.15H123.88ZM124.03 247.15H126.33L125.17 241.15L124.03 247.15Z" fill="#263238"/>
<path d="M133.42 242.38V242.66H132.33V242.32C132.33 241.39 131.97 240.84 131.15 240.84C130.33 240.84 129.96 241.39 129.96 242.31C129.96 244.63 133.43 244.85 133.43 247.76C133.43 249.32 132.68 250.34 131.1 250.34C129.52 250.34 128.78 249.34 128.78 247.76V247.17H129.86V247.82C129.86 248.75 130.24 249.29 131.07 249.29C131.9 249.29 132.28 248.75 132.28 247.82C132.28 245.51 128.83 245.29 128.83 242.38C128.83 240.79 129.56 239.8 131.12 239.8C132.68 239.8 133.42 240.81 133.42 242.38Z" fill="#263238"/>
<path d="M138.91 242.38V242.66H137.82V242.32C137.82 241.39 137.46 240.84 136.64 240.84C135.82 240.84 135.45 241.39 135.45 242.31C135.45 244.63 138.92 244.85 138.92 247.76C138.92 249.32 138.17 250.34 136.59 250.34C135.01 250.34 134.27 249.34 134.27 247.76V247.17H135.35V247.82C135.35 248.75 135.74 249.29 136.56 249.29C137.38 249.29 137.77 248.75 137.77 247.82C137.77 245.51 134.32 245.29 134.32 242.38C134.32 240.79 135.06 239.8 136.61 239.8C138.16 239.8 138.91 240.81 138.91 242.38Z" fill="#263238"/>
<path d="M142.67 250.24H141.09L139.68 239.9H140.8L142.01 248.7L143.16 239.91H144.3L145.44 248.72L146.6 239.9H147.6L146.19 250.24H144.67L143.67 243.24L142.67 250.24Z" fill="#263238"/>
<path d="M148.44 242.4C148.44 240.81 149.23 239.8 150.81 239.8C152.39 239.8 153.18 240.8 153.18 242.4V247.74C153.18 249.31 152.4 250.34 150.81 250.34C149.22 250.34 148.44 249.34 148.44 247.74V242.4ZM149.58 247.8C149.58 248.75 149.98 249.29 150.81 249.29C151.64 249.29 152.03 248.75 152.03 247.8V242.34C152.03 241.41 151.65 240.84 150.81 240.84C149.97 240.84 149.58 241.41 149.58 242.34V247.8Z" fill="#263238"/>
<path d="M156.58 239.9C158.2 239.9 158.88 240.73 158.88 242.26V243.1C158.88 244.24 158.48 244.95 157.6 245.23C158.54 245.51 158.9 246.28 158.9 247.39V249C158.866 249.423 158.935 249.849 159.1 250.24H157.94C157.77 249.843 157.701 249.41 157.74 248.98V247.36C157.74 246.19 157.2 245.82 156.24 245.82H155.43V250.24H154.27V239.9H156.58ZM156.28 244.77C157.2 244.77 157.74 244.48 157.74 243.36V242.36C157.74 241.43 157.4 240.94 156.55 240.94H155.43V244.76L156.28 244.77Z" fill="#263238"/>
<path d="M162.51 239.9C164.12 239.9 164.86 240.9 164.86 242.47V247.68C164.86 249.26 164.12 250.24 162.51 250.24H160.09V239.9H162.51ZM162.51 249.19C163.33 249.19 163.73 248.67 163.73 247.73V242.41C163.73 241.46 163.33 240.95 162.49 240.95H161.25V249.19H162.51Z" fill="#263238"/>
<path d="M137.31 290.16C138.93 290.16 139.61 290.98 139.61 292.52V293.36C139.61 294.5 139.21 295.21 138.33 295.49C139.27 295.77 139.63 296.54 139.63 297.64V299.25C139.595 299.676 139.664 300.105 139.83 300.5H138.67C138.501 300.102 138.433 299.67 138.47 299.24V297.62C138.47 296.45 137.93 296.08 136.97 296.08H136.16V300.5H135V290.16H137.31ZM137 295C137.92 295 138.46 294.71 138.46 293.58V292.58C138.46 291.65 138.12 291.17 137.27 291.17H136.15V295H137Z" fill="#263238"/>
<path d="M144.5 294.74V295.74H142V299.42H145.1V300.47H140.85V290.16H145.1V291.16H142V294.69L144.5 294.74Z" fill="#263238"/>
<path d="M149.94 300.48H148.84L147.12 292.25V300.5H146.12V290.16H147.73L149.43 298.41L151.07 290.16H152.68V300.5H151.58V292.18L149.94 300.48Z" fill="#263238"/>
<path d="M157.53 294.74V295.74H155V299.42H158.11V300.47H153.85V290.16H158.11V291.16H155V294.69L157.53 294.74Z" fill="#263238"/>
<path d="M163 300.48H161.89L160.18 292.25V300.5H159.18V290.16H160.79L162.49 298.41L164.13 290.16H165.74V300.5H164.65V292.18L163 300.48Z" fill="#263238"/>
<path d="M169.2 290.16C170.81 290.16 171.45 290.92 171.45 292.45V292.93C171.45 294.03 171.14 294.71 170.24 294.99C171.24 295.27 171.63 296.06 171.63 297.2V298.07C171.677 298.394 171.648 298.726 171.547 299.037C171.445 299.349 171.273 299.634 171.044 299.869C170.815 300.104 170.535 300.283 170.226 300.392C169.916 300.501 169.586 300.538 169.26 300.5H166.89V290.16H169.2ZM168.92 294.54C169.84 294.54 170.31 294.25 170.31 293.17V292.56C170.31 291.65 170 291.21 169.18 291.21H168V294.54H168.92ZM169.26 299.45C170.11 299.45 170.49 299 170.49 298.04V297.13C170.49 295.98 170.03 295.59 169.04 295.59H168.04V299.45H169.26Z" fill="#263238"/>
<path d="M176.35 294.74V295.74H173.82V299.42H176.93V300.47H172.67V290.16H176.93V291.16H173.82V294.69L176.35 294.74Z" fill="#263238"/>
<path d="M180.29 290.16C181.91 290.16 182.59 290.98 182.59 292.52V293.36C182.59 294.5 182.19 295.21 181.31 295.49C182.25 295.77 182.61 296.54 182.61 297.64V299.25C182.573 299.677 182.645 300.107 182.82 300.5H181.65C181.491 300.1 181.426 299.669 181.46 299.24V297.62C181.46 296.45 180.91 296.08 179.95 296.08H179.14V300.5H178V290.16H180.29ZM180 295C180.92 295 181.47 294.71 181.47 293.58V292.58C181.47 291.65 181.13 291.17 180.27 291.17H179.15V295H180Z" fill="#263238"/>
<path d="M187.61 300.48H186.5L184.79 292.25V300.5H183.79V290.16H185.4L187.1 298.41L188.73 290.16H190.34V300.5H189.25V292.18L187.61 300.48Z" fill="#263238"/>
<path d="M195.2 294.74V295.74H192.67V299.42H195.77V300.47H191.52V290.16H195.77V291.16H192.67V294.69L195.2 294.74Z" fill="#263238"/>
<path d="M225.98 325.51H124.39C122.551 325.51 121.06 327.001 121.06 328.84V344.67C121.06 346.509 122.551 348 124.39 348H225.98C227.819 348 229.31 346.509 229.31 344.67V328.84C229.31 327.001 227.819 325.51 225.98 325.51Z" fill="#263238" stroke="#263238" stroke-miterlimit="10"/>
<path d="M163.157 339.14C163.157 338.948 163.114 338.77 163.027 338.607C162.946 338.439 162.775 338.288 162.516 338.153C162.261 338.014 161.877 337.894 161.362 337.793C160.93 337.701 160.538 337.593 160.188 337.468C159.842 337.343 159.546 337.192 159.301 337.014C159.061 336.836 158.876 336.627 158.746 336.387C158.616 336.147 158.551 335.866 158.551 335.544C158.551 335.236 158.619 334.946 158.753 334.672C158.893 334.398 159.087 334.155 159.337 333.944C159.592 333.732 159.897 333.567 160.252 333.447C160.608 333.326 161.004 333.266 161.442 333.266C162.066 333.266 162.6 333.377 163.042 333.598C163.484 333.819 163.823 334.114 164.058 334.484C164.293 334.85 164.411 335.256 164.411 335.702H163.078C163.078 335.486 163.013 335.277 162.883 335.075C162.758 334.869 162.573 334.698 162.328 334.564C162.088 334.429 161.792 334.362 161.442 334.362C161.072 334.362 160.771 334.42 160.541 334.535C160.315 334.645 160.149 334.787 160.043 334.96C159.943 335.133 159.892 335.316 159.892 335.508C159.892 335.652 159.916 335.782 159.964 335.897C160.017 336.008 160.108 336.111 160.238 336.207C160.368 336.298 160.55 336.385 160.786 336.466C161.021 336.548 161.322 336.63 161.687 336.712C162.326 336.856 162.852 337.029 163.265 337.23C163.678 337.432 163.986 337.68 164.188 337.973C164.39 338.266 164.49 338.622 164.49 339.04C164.49 339.381 164.418 339.693 164.274 339.977C164.135 340.26 163.931 340.505 163.662 340.712C163.397 340.913 163.08 341.072 162.71 341.187C162.345 341.298 161.934 341.353 161.478 341.353C160.791 341.353 160.209 341.231 159.734 340.986C159.258 340.74 158.897 340.423 158.652 340.034C158.407 339.645 158.285 339.234 158.285 338.802H159.625C159.645 339.167 159.75 339.458 159.943 339.674C160.135 339.885 160.37 340.037 160.649 340.128C160.928 340.214 161.204 340.258 161.478 340.258C161.843 340.258 162.148 340.21 162.393 340.113C162.643 340.017 162.833 339.885 162.962 339.717C163.092 339.549 163.157 339.357 163.157 339.14ZM171.013 339.407V333.411H172.354V341.209H171.078L171.013 339.407ZM171.265 337.764L171.82 337.749C171.82 338.268 171.765 338.749 171.655 339.191C171.549 339.628 171.376 340.008 171.136 340.33C170.895 340.652 170.581 340.904 170.192 341.086C169.802 341.264 169.329 341.353 168.772 341.353C168.392 341.353 168.044 341.298 167.727 341.187C167.414 341.077 167.145 340.906 166.919 340.676C166.694 340.445 166.518 340.145 166.393 339.775C166.273 339.405 166.213 338.96 166.213 338.441V333.411H167.546V338.456C167.546 338.806 167.585 339.097 167.662 339.328C167.743 339.554 167.852 339.734 167.986 339.868C168.125 339.998 168.279 340.089 168.447 340.142C168.62 340.195 168.798 340.222 168.981 340.222C169.548 340.222 169.997 340.113 170.328 339.897C170.66 339.676 170.898 339.381 171.042 339.011C171.191 338.636 171.265 338.22 171.265 337.764ZM174.379 330.138H175.72V339.695L175.604 341.209H174.379V330.138ZM180.988 337.245V337.396C180.988 337.963 180.921 338.489 180.786 338.975C180.652 339.455 180.455 339.873 180.195 340.229C179.936 340.584 179.619 340.861 179.244 341.058C178.869 341.255 178.439 341.353 177.954 341.353C177.459 341.353 177.024 341.269 176.649 341.101C176.279 340.928 175.967 340.68 175.712 340.359C175.458 340.037 175.254 339.647 175.1 339.191C174.951 338.734 174.848 338.22 174.79 337.649V336.985C174.848 336.409 174.951 335.892 175.1 335.436C175.254 334.979 175.458 334.59 175.712 334.268C175.967 333.941 176.279 333.694 176.649 333.526C177.019 333.353 177.449 333.266 177.94 333.266C178.43 333.266 178.864 333.362 179.244 333.555C179.624 333.742 179.941 334.011 180.195 334.362C180.455 334.713 180.652 335.133 180.786 335.623C180.921 336.109 180.988 336.649 180.988 337.245ZM179.648 337.396V337.245C179.648 336.856 179.612 336.491 179.54 336.149C179.468 335.803 179.352 335.501 179.194 335.241C179.035 334.977 178.826 334.77 178.567 334.621C178.307 334.468 177.988 334.391 177.608 334.391C177.272 334.391 176.979 334.448 176.729 334.564C176.484 334.679 176.275 334.835 176.102 335.032C175.929 335.224 175.787 335.445 175.676 335.695C175.571 335.94 175.491 336.195 175.439 336.459V338.196C175.515 338.533 175.64 338.857 175.813 339.169C175.991 339.477 176.227 339.729 176.52 339.926C176.818 340.123 177.185 340.222 177.622 340.222C177.983 340.222 178.29 340.149 178.545 340.005C178.804 339.856 179.013 339.652 179.172 339.393C179.335 339.133 179.456 338.833 179.532 338.492C179.609 338.151 179.648 337.785 179.648 337.396ZM184.001 334.96V341.209H182.66V333.411H183.929L184.001 334.96ZM183.727 337.014L183.107 336.993C183.112 336.459 183.182 335.967 183.316 335.515C183.451 335.059 183.65 334.662 183.915 334.326C184.179 333.99 184.508 333.73 184.902 333.547C185.296 333.36 185.752 333.266 186.271 333.266C186.637 333.266 186.973 333.319 187.28 333.425C187.588 333.526 187.855 333.687 188.08 333.908C188.306 334.129 188.482 334.412 188.607 334.758C188.732 335.104 188.794 335.522 188.794 336.012V341.209H187.461V336.077C187.461 335.669 187.391 335.342 187.252 335.097C187.117 334.852 186.925 334.674 186.675 334.564C186.425 334.448 186.132 334.391 185.796 334.391C185.402 334.391 185.073 334.46 184.808 334.6C184.544 334.739 184.333 334.931 184.174 335.176C184.015 335.421 183.9 335.702 183.828 336.02C183.761 336.332 183.727 336.663 183.727 337.014ZM188.78 336.279L187.886 336.553C187.891 336.125 187.96 335.715 188.095 335.32C188.234 334.926 188.434 334.576 188.693 334.268C188.957 333.961 189.282 333.718 189.666 333.54C190.05 333.358 190.49 333.266 190.985 333.266C191.403 333.266 191.773 333.322 192.095 333.432C192.422 333.543 192.696 333.713 192.917 333.944C193.142 334.17 193.313 334.46 193.428 334.816C193.544 335.172 193.601 335.594 193.601 336.084V341.209H192.261V336.07C192.261 335.633 192.191 335.294 192.052 335.054C191.917 334.809 191.725 334.638 191.475 334.542C191.23 334.441 190.937 334.391 190.596 334.391C190.303 334.391 190.043 334.441 189.817 334.542C189.592 334.643 189.402 334.782 189.248 334.96C189.094 335.133 188.977 335.333 188.895 335.558C188.818 335.784 188.78 336.024 188.78 336.279ZM197.068 333.411V341.209H195.728V333.411H197.068ZM195.627 331.342C195.627 331.126 195.692 330.943 195.821 330.794C195.956 330.645 196.153 330.571 196.412 330.571C196.667 330.571 196.862 330.645 196.996 330.794C197.135 330.943 197.205 331.126 197.205 331.342C197.205 331.549 197.135 331.726 196.996 331.875C196.862 332.019 196.667 332.092 196.412 332.092C196.153 332.092 195.956 332.019 195.821 331.875C195.692 331.726 195.627 331.549 195.627 331.342ZM202.474 333.411V334.434H198.257V333.411H202.474ZM199.684 331.515H201.018V339.277C201.018 339.542 201.059 339.741 201.14 339.876C201.222 340.01 201.328 340.099 201.457 340.142C201.587 340.186 201.727 340.207 201.875 340.207C201.986 340.207 202.101 340.198 202.221 340.178C202.346 340.154 202.44 340.135 202.503 340.121L202.51 341.209C202.404 341.243 202.265 341.274 202.092 341.303C201.924 341.336 201.719 341.353 201.479 341.353C201.152 341.353 200.852 341.288 200.578 341.159C200.304 341.029 200.086 340.813 199.922 340.51C199.764 340.202 199.684 339.789 199.684 339.27V331.515Z" fill="white"/>
<path d="M228.6 203.91H117.54V220.78H228.6V203.91Z" fill="white" stroke="#263238" stroke-miterlimit="10"/>
<path d="M228.6 256.28H117.54V273.15H228.6V256.28Z" fill="white" stroke="#263238" stroke-miterlimit="10"/>
<path d="M128.79 289.67H118.95V299.51H128.79V289.67Z" fill="white" stroke="#263238" stroke-miterlimit="10"/>
<path d="M333.2 427.92C328.589 428.612 323.896 428.534 319.31 427.69C311.43 426.3 303.1 419.59 303.1 419.59L296.39 420.05V390.89C296.39 390.89 308 388.8 311.67 389C315.34 389.2 333.2 406.83 333.2 406.83V427.92Z" fill="white" stroke="#263238" stroke-miterlimit="10"/>
<path d="M302.96 431.01H281.48L277.87 388.42H306.57L302.96 431.01Z" fill="#FFC100" stroke="#263238" stroke-miterlimit="10"/>
<path d="M305.92 381.26H279.19V383.61H305.92V381.26Z" fill="white" stroke="#263238" stroke-miterlimit="10"/>
<path d="M307.5 383.17H276.94V391.5H307.5V383.17Z" fill="white" stroke="#263238" stroke-miterlimit="10"/>
<path d="M320.69 421.21C310.05 420.05 308.89 408.48 308.89 408.48C308.89 408.48 300.79 414.04 297.31 414.04C293.83 414.04 292.91 411.49 292.22 409.71C291.53 407.93 307.73 397.37 307.73 397.37C307.73 397.37 310.73 394.37 313.29 394.37C315.85 394.37 326.71 409.18 328.8 411.73" fill="white"/>
<path d="M320.69 421.21C310.05 420.05 308.89 408.48 308.89 408.48C308.89 408.48 300.79 414.04 297.31 414.04C293.83 414.04 292.91 411.49 292.22 409.71C291.53 407.93 307.73 397.37 307.73 397.37C307.73 397.37 310.73 394.37 313.29 394.37C315.85 394.37 326.71 409.18 328.8 411.73" stroke="#263238" stroke-miterlimit="10"/>
<path d="M454.87 452.01L454.03 356.87L449.79 381.48L451.46 452.01H454.87Z" fill="#263238" stroke="#263238" stroke-miterlimit="10"/>
<path d="M448.17 452L448.72 400.26C448.72 400.26 456.8 383.78 457.42 376.06C458.04 368.34 462.36 349.51 458.35 340.87C454.34 332.23 457.86 302.97 457.86 302.97L454.11 289.63C451.64 283.15 427.88 268.03 418.93 264.94C410.073 262.083 400.71 261.136 391.46 262.16C383.46 263.09 379.11 267.72 378.18 269.26C377.25 270.8 372.32 285.62 366.45 293.65C360.58 301.68 355.65 307.54 351.33 313.71C347.01 319.88 344.23 332.54 341.45 339.95C338.67 347.36 334.04 380.38 331.88 397.95C329.98 413.45 331.19 444.74 331.51 451.95L448.17 452Z" fill="#808080" stroke="#263238" stroke-miterlimit="10"/>
<path d="M363.44 319.92C366.55 316.709 370.051 313.9 373.86 311.56C383.43 306 390.22 301.06 390.22 301.06L388.37 290.26L398.25 294.89C398.25 294.89 400.41 288.1 406.58 276.37C412.75 264.64 413.06 262.17 413.06 262.17" stroke="#263238" stroke-miterlimit="10"/>
<path d="M355.42 329.07C357.401 326.477 359.521 323.993 361.77 321.63" stroke="#263238" stroke-miterlimit="10"/>
<path d="M398.45 316.15L384.03 451.9H389.12L401.85 320.39L398.45 316.15Z" fill="#263238" stroke="#263238" stroke-miterlimit="10"/>
<path d="M341.69 452C341.41 439.4 340.52 387.2 344.85 367.73C349.79 345.5 354.11 320.5 361.51 310.01C368.91 299.52 384.05 286.24 392.07 278.52C397.173 273.372 401.246 267.296 404.07 260.62L393 230.69C393 230.69 383.12 247.36 380 248.59C380 248.59 383.09 262.48 380.93 270.51C378.77 278.54 364.57 301.37 360.25 306.93C355.93 312.49 342.69 343 339.91 363.41C337.46 381.41 337.17 438.73 337.14 452.01L341.69 452Z" fill="white" stroke="#263238" stroke-miterlimit="10"/>
<path d="M380.95 253.64L396.54 253.31L391.23 241.7L380.95 253.64Z" fill="#263238" stroke="#263238" stroke-miterlimit="10"/>
<path d="M341.69 452C341.41 439.4 340.52 387.2 344.85 367.73C349.79 345.5 354.11 320.5 361.51 310.01C368.91 299.52 384.05 286.24 392.07 278.52C394.653 276.001 396.953 273.208 398.93 270.19C390.12 276.19 383.12 276.39 378.93 275.61C374.29 285.67 363.84 302.29 360.24 306.92C355.92 312.48 342.65 343.03 339.87 363.4C337.42 381.4 337.13 438.72 337.1 452H341.69Z" fill="#FFC100" stroke="#263238" stroke-miterlimit="10"/>
<path d="M380.23 251.42C380.23 251.42 383.23 262.89 382.93 267.94C382.63 272.99 378.21 287.5 372.81 295.26C367.41 303.02 358.65 314.82 351.57 317.86C344.49 320.9 341.79 320.86 341.79 320.86C346.172 318.721 349.967 315.546 352.846 311.609C355.724 307.673 357.6 303.094 358.31 298.27C361.01 281.4 352.24 240.6 351.9 237.9C351.56 235.2 380.23 251.42 380.23 251.42Z" fill="#263238" stroke="#263238" stroke-miterlimit="10"/>
<path d="M341.44 204.71C341.44 204.71 340.77 218.06 342.11 220.39C343.45 222.72 347.11 224.39 347.11 228.39C347.11 232.39 343.77 239.74 345.44 242.07C347.11 244.4 353.11 244.41 353.11 244.41C353.11 244.41 362.11 254.75 364.46 257.09C366.81 259.43 370.13 263.09 371.8 262.43C373.47 261.77 386.15 248.75 389.15 243.74C392.15 238.73 393.82 221.05 392.49 213.38C391.16 205.71 372.49 193.02 362.12 192.38C355.493 192.045 348.854 192.719 342.43 194.38L341.44 204.71Z" fill="white" stroke="#263238" stroke-miterlimit="10"/>
<path d="M353.12 219.73L355.24 225.33L363.04 220.51" stroke="#263238" stroke-miterlimit="10"/>
<path d="M349.35 217.53C349.35 217.53 347.23 209.59 358.89 211.71" stroke="#263238" stroke-miterlimit="10"/>
<path d="M357.46 245.76C357.46 245.76 363.13 244.09 367.46 237.08" stroke="#263238" stroke-miterlimit="10"/>
<path d="M359.06 224C359.38 224.61 358.93 225.48 358.06 226C357.19 226.52 356.2 226.36 355.88 225.76C355.56 225.16 356.01 224.28 356.88 223.76C357.75 223.24 358.73 223.43 359.06 224Z" fill="#263238"/>
<path d="M348.78 174.34C348.78 174.34 327.09 188.34 328.78 193.03C330.47 197.72 341.46 204.71 341.46 204.71L342.46 197.37C342.46 197.37 353.81 203.04 364.46 207.05L375.14 211.05C376.721 212.801 378.389 214.47 380.14 216.05C381.48 217.05 386.14 217.05 386.14 217.05C386.14 217.05 387.81 252.75 394.14 261.1C400.47 269.45 418.83 277.1 431.14 282.45C443.45 287.8 448.92 288.21 452.26 292.88C455.6 297.55 457 312.41 457 312.41C457 312.41 477.18 291.57 448.6 242.08C427.87 206.18 430.25 202.08 423.24 190.03C416.23 177.98 399.24 160.33 382.53 159.03C365.82 157.73 348.78 174.34 348.78 174.34Z" fill="#263238" stroke="#263238" stroke-miterlimit="10"/>
<path d="M428.42 259.16C430.726 260.398 433.104 261.497 435.54 262.45" stroke="#787878" stroke-miterlimit="10"/>
<path d="M376.33 172.22C386.842 181.104 393.675 193.579 395.5 207.22C397.73 225.05 405.24 242.88 421.1 254.58" stroke="#787878" stroke-miterlimit="10"/>
<path d="M366.91 189.75C371.137 191.032 375.235 192.705 379.15 194.75" stroke="#787878" stroke-miterlimit="10"/>
<path d="M337.42 194.21C337.42 194.21 331.78 191.96 337.99 187.45C341.66 184.77 351.48 185.67 361.22 188.13" stroke="#787878" stroke-miterlimit="10"/>
<path d="M386.16 214.05C386.16 214.05 383.49 191.7 377.16 183.05" stroke="#787878" stroke-miterlimit="10"/>
<path d="M271.39 362.8L247.48 344.52C247.288 344.373 247.144 344.173 247.065 343.945C246.987 343.716 246.978 343.469 247.041 343.236C247.103 343.002 247.233 342.792 247.414 342.633C247.596 342.474 247.821 342.372 248.06 342.34L260.62 340.64C261.487 340.52 262.368 340.577 263.212 340.808C264.056 341.038 264.845 341.437 265.53 341.98L289.91 361.25L271.39 362.8Z" fill="#263238" stroke="#263238" stroke-miterlimit="10"/>
<path d="M319.85 364C319.85 364 314.29 359.06 312.44 356.29C311.385 354.882 309.964 353.791 308.33 353.136C306.697 352.482 304.915 352.29 303.18 352.58C299.78 353.2 292.07 351.35 290.83 352.89C289.59 354.43 289.6 358.45 289.6 358.45C289.6 358.45 270.46 359.68 268.92 359.37C267.38 359.06 266.14 361.53 267.37 363.69C268.6 365.85 277.57 368.25 277.57 368.25C277.565 369.983 277.958 371.694 278.72 373.25C280.04 375.93 282.23 380.09 284.04 381.89C286.82 384.67 292.68 385.89 298.86 387.14C305.04 388.39 314.91 386.83 314.91 386.83L319.85 364Z" fill="white" stroke="#263238" stroke-miterlimit="10"/>
<path d="M289.6 358.48L304.1 357.55" stroke="#263238" stroke-miterlimit="10"/>
<path d="M277.57 368.28C280.964 368.095 284.367 368.208 287.74 368.62C291.81 369.29 295.2 369.97 297.57 369.29" stroke="#263238" stroke-miterlimit="10"/>
<path d="M278.72 373.29C281.655 373.812 284.554 374.516 287.4 375.4C290.11 376.4 294.52 379.12 298.92 377.77" stroke="#263238" stroke-miterlimit="10"/>
<path d="M283 380.14C283 380.14 290.46 383.53 296.22 383.19" stroke="#263238" stroke-miterlimit="10"/>
<path d="M450.72 303.53C450.72 303.53 452 318 452 328.54C452 339.08 450.77 360.33 443.67 374.83C436.57 389.33 438.42 399.53 431.32 414.04C424.22 428.55 419.32 428.85 398.91 427.04C378.5 425.23 355.39 417.47 354.16 417.47C352.93 417.47 334.66 414 326 409.71C320.12 406.686 314.442 403.285 309 399.53C309.272 396.986 309.895 394.493 310.85 392.12C312.4 388.42 317.34 361.56 317.34 361.56C323.023 364.913 329.017 367.706 335.24 369.9C340.697 371.619 346.267 372.956 351.91 373.9C351.91 373.9 357.77 370.2 359.62 369.58C361.47 368.96 365.18 373.28 370.43 374.52C375.235 375.627 380.1 376.455 385 377C386.24 377 398.85 375.5 398 375.76C396.87 376.1 395.82 373.76 396.15 371.76C397.184 368.552 398.523 365.451 400.15 362.5C401.07 361.26 401.07 356.63 401.07 353.55C401.07 350.47 396.75 318.05 398.91 309.1C401.07 300.15 414 281.62 414 281.62C414 281.62 414.57 278.83 421.41 278.84C428.25 278.85 439.31 286.25 443.94 290.26" fill="#808080"/>
<path d="M450.72 303.53C450.72 303.53 452 318 452 328.54C452 339.08 450.77 360.33 443.67 374.83C436.57 389.33 438.42 399.53 431.32 414.04C424.22 428.55 419.32 428.85 398.91 427.04C378.5 425.23 355.39 417.47 354.16 417.47C352.93 417.47 334.66 414 326 409.71C320.12 406.686 314.442 403.285 309 399.53C309.272 396.986 309.895 394.493 310.85 392.12C312.4 388.42 317.34 361.56 317.34 361.56C323.023 364.913 329.017 367.706 335.24 369.9C340.697 371.619 346.267 372.956 351.91 373.9C351.91 373.9 357.77 370.2 359.62 369.58C361.47 368.96 365.18 373.28 370.43 374.52C375.235 375.627 380.1 376.455 385 377C386.24 377 398.85 375.5 398 375.76C396.87 376.1 395.82 373.76 396.15 371.76C397.184 368.552 398.523 365.451 400.15 362.5C401.07 361.26 401.07 356.63 401.07 353.55C401.07 350.47 396.75 318.05 398.91 309.1C401.07 300.15 414 281.62 414 281.62C414 281.62 414.57 278.83 421.41 278.84C428.25 278.85 439.31 286.25 443.94 290.26" stroke="#263238" stroke-miterlimit="10"/>
<path d="M443.23 321.07C440.796 318.526 437.901 316.466 434.7 315C430.913 313.406 426.69 313.173 422.75 314.34" stroke="#263238" stroke-miterlimit="10"/>
<path d="M447.3 325.64C447.3 325.64 446.38 324.41 444.86 322.76" stroke="#263238" stroke-miterlimit="10"/>
<path d="M316.89 396.16C316.89 396.516 316.784 396.864 316.587 397.16C316.389 397.456 316.108 397.687 315.779 397.823C315.45 397.959 315.088 397.995 314.739 397.925C314.39 397.856 314.069 397.684 313.817 397.433C313.566 397.181 313.394 396.86 313.325 396.511C313.255 396.162 313.291 395.8 313.427 395.471C313.563 395.142 313.794 394.861 314.09 394.663C314.386 394.465 314.734 394.36 315.09 394.36C315.567 394.362 316.023 394.553 316.36 394.89C316.697 395.227 316.887 395.683 316.89 396.16V396.16Z" stroke="#263238" stroke-miterlimit="10"/>
<path d="M410.79 387.76C411.946 389.025 413.222 390.173 414.6 391.19" stroke="#263238" stroke-miterlimit="10"/>
<path d="M398.55 374.22C398.55 374.22 404.04 380.62 408.73 385.6" stroke="#263238" stroke-miterlimit="10"/>
<path d="M378 391.23C378.996 392.719 380.074 394.151 381.23 395.52" stroke="#263238" stroke-miterlimit="10"/>
<path d="M368.31 375.14C368.31 375.14 372.26 382.32 376.23 388.5" stroke="#263238" stroke-miterlimit="10"/>
<path d="M327.58 393.06C326.31 399.06 324.89 404.4 323.58 406.63" stroke="#263238" stroke-miterlimit="10"/>
<path d="M331.57 370.21C331.57 370.21 330.33 378.93 328.57 387.97" stroke="#263238" stroke-miterlimit="10"/>
</svg>
